<svg xmlns="http://www.w3.org/2000/svg" version="1.1" xmlns:xlink="http://www.w3.org/1999/xlink" xmlns:svgjs="http://svgjs.dev/svgjs" width="1440" height="900" preserveAspectRatio="none" viewBox="0 0 1440 900"><g mask="url(&quot;#SvgjsMask1039&quot;)" fill="none"><rect width="1440" height="900" x="0" y="0" fill="rgba(135, 35, 39, 1)"></rect><path d="M1464 900L0 900 L0 523.84Q75.65 527.49, 72 603.14Q32.21 491.35, 144 451.56Q250.42 437.98, 264 544.4Q311.77 472.17, 384 519.94Q425.55 441.49, 504 483.04Q523.96 431, 576 450.97Q619.67 422.64, 648 466.32Q741.04 439.36, 768 532.4Q859.07 503.47, 888 594.54Q901.08 487.62, 1008 500.7Q1035.63 456.32, 1080 483.95Q1107.15 439.11, 1152 466.26Q1207.24 449.5, 1224 504.75Q1326.53 487.27, 1344 589.8Q1380.37 506.17, 1464 542.54z" fill="rgba(125, 28, 32, 1)"></path><path d="M1464 900L0 900 L0 590.5Q77.86 548.36, 120 626.21Q203.37 589.58, 240 672.95Q270.46 583.41, 360 613.87Q382.92 564.79, 432 587.7Q462.29 545.99, 504 576.28Q599.02 551.3, 624 646.32Q696.48 646.8, 696 719.28Q692.28 595.56, 816 591.84Q880.58 584.42, 888 649Q949.95 638.95, 960 700.9Q971.35 592.25, 1080 603.6Q1105.38 556.98, 1152 582.35Q1180.13 538.48, 1224 566.6Q1325.21 547.81, 1344 649.02Q1412.42 597.44, 1464 665.87z" fill="rgba(177, 46, 51, 1)"></path><path d="M1512 900L0 900 L0 757.24Q18.15 703.39, 72 721.54Q88.49 666.03, 144 682.52Q210.55 629.07, 264 695.62Q331.86 691.48, 336 759.34Q347.26 698.6, 408 709.86Q483.85 665.71, 528 741.56Q575.68 717.24, 600 764.93Q640.8 685.73, 720 726.53Q737.11 671.63, 792 688.74Q833.22 657.96, 864 699.18Q966.26 681.44, 984 783.7Q987.27 714.97, 1056 718.24Q1107.33 649.57, 1176 700.9Q1227.77 680.67, 1248 732.44Q1322.09 734.53, 1320 808.61Q1391.86 760.47, 1440 832.32Q1440.08 760.39, 1512 760.47z" fill="rgba(217, 68, 74, 1)"></path><path d="M1488 900L0 900 L0 889.27Q66.12 835.39, 120 901.51Q124.65 786.16, 240 790.81Q285.51 764.32, 312 809.82Q378.67 804.5, 384 871.17Q433.81 800.98, 504 850.79Q601.84 828.63, 624 926.46Q632.12 862.58, 696 870.7Q738.7 841.4, 768 884.1Q813.04 857.14, 840 902.18Q844.06 786.24, 960 790.3Q1043.52 801.82, 1032 885.33Q1081.7 863.03, 1104 912.72Q1124.05 812.77, 1224 832.82Q1254.07 790.89, 1296 820.97Q1353.88 806.85, 1368 864.73Q1439.74 816.47, 1488 888.21z" fill="white"></path></g><defs><mask id="SvgjsMask1039"><rect width="1440" height="900" fill="#ffffff"></rect></mask></defs></svg>