<svg xmlns="http://www.w3.org/2000/svg" version="1.1" xmlns:xlink="http://www.w3.org/1999/xlink" xmlns:svgjs="http://svgjs.dev/svgjs" width="1440" height="700" preserveAspectRatio="none" viewBox="0 0 1440 700"><g mask="url(&quot;#SvgjsMask1049&quot;)" fill="none"><rect width="1440" height="700" x="0" y="0" fill="rgba(135, 35, 39, 1)"></rect><path d="M1560 700L0 700 L0 375.46Q25.52 328.98, 72 354.49Q167.2 329.69, 192 424.89Q206.21 367.1, 264 381.3Q312.14 309.44, 384 357.59Q439.89 341.48, 456 397.36Q486.19 355.56, 528 385.75Q616.81 354.56, 648 443.36Q674.42 397.78, 720 424.21Q720.56 352.77, 792 353.33Q886.44 327.77, 912 422.21Q924.08 362.29, 984 374.38Q1052.03 322.41, 1104 390.44Q1176.96 391.4, 1176 464.37Q1232.57 400.94, 1296 457.5Q1285.9 375.4, 1368 365.31Q1409.78 335.09, 1440 376.86Q1505.71 322.57, 1560 388.28z" fill="rgba(125, 28, 32, 1)"></path><path d="M1488 700L0 700 L0 439.56Q48.87 416.43, 72 465.3Q168.3 441.6, 192 537.89Q223.25 449.14, 312 480.39Q355.81 404.19, 432 448Q491.24 435.24, 504 494.48Q567.59 486.07, 576 549.66Q602.24 503.89, 648 530.13Q657.9 468.03, 720 477.93Q766.76 404.69, 840 451.45Q898.77 438.23, 912 497Q963.44 476.44, 984 527.88Q1034.33 506.21, 1056 556.54Q1062.54 443.08, 1176 449.62Q1230.38 384, 1296 438.38Q1387.65 410.03, 1416 501.68Q1463.11 476.78, 1488 523.89z" fill="rgba(177, 46, 51, 1)"></path><path d="M1488 700L0 700 L0 621.69Q43.84 545.53, 120 589.36Q140.84 538.2, 192 559.04Q278.64 525.68, 312 612.32Q357.66 585.98, 384 631.64Q421.65 549.29, 504 586.94Q575.6 538.54, 624 610.14Q661.31 527.45, 744 564.77Q790.52 539.29, 816 585.81Q845.86 495.67, 936 525.53Q1018.83 488.36, 1056 571.19Q1140.47 535.66, 1176 620.14Q1200.6 572.74, 1248 597.34Q1283.51 512.85, 1368 548.35Q1419.49 479.84, 1488 531.32z" fill="rgba(217, 68, 74, 1)"></path><path d="M1536 700L0 700 L0 656.33Q35.16 619.49, 72 654.65Q125.55 636.2, 144 689.75Q148.2 621.95, 216 626.15Q246.17 584.32, 288 614.49Q372.84 579.33, 408 664.16Q462.17 598.33, 528 652.49Q613.25 617.74, 648 702.98Q695.61 678.59, 720 726.19Q740.55 626.74, 840 647.29Q861.24 596.52, 912 617.76Q996.8 582.56, 1032 667.36Q1097.76 613.12, 1152 678.88Q1210.32 665.2, 1224 723.52Q1253.2 680.72, 1296 709.93Q1338.64 632.57, 1416 675.2Q1450.4 589.6, 1536 624z" fill="white"></path></g><defs><mask id="SvgjsMask1049"><rect width="1440" height="700" fill="#ffffff"></rect></mask></defs></svg>