<svg xmlns="http://www.w3.org/2000/svg" xmlns:xlink="http://www.w3.org/1999/xlink" width="500" zoomAndPan="magnify" viewBox="0 0 375 374.999991" height="500" preserveAspectRatio="xMidYMid meet" version="1.0"><defs><clipPath id="40e08ed7a6"><path d="M 187.5 0 C 83.945312 0 0 83.945312 0 187.5 C 0 291.054688 83.945312 375 187.5 375 C 291.054688 375 375 291.054688 375 187.5 C 375 83.945312 291.054688 0 187.5 0 Z M 187.5 0 " clip-rule="nonzero"/></clipPath><clipPath id="93522c76c9"><path d="M 225 96 L 280.917969 96 L 280.917969 240 L 225 240 Z M 225 96 " clip-rule="nonzero"/></clipPath><clipPath id="e8aa6989d3"><path d="M 255 126 L 304 126 L 304 175 L 255 175 Z M 255 126 " clip-rule="nonzero"/></clipPath><clipPath id="b0b7267c45"><path d="M 255.304688 142.46875 L 270.925781 126.847656 L 303.046875 158.964844 L 287.425781 174.585938 Z M 255.304688 142.46875 " clip-rule="nonzero"/></clipPath><clipPath id="194f2b57d2"><path d="M 255 161 L 304 161 L 304 210 L 255 210 Z M 255 161 " clip-rule="nonzero"/></clipPath><clipPath id="ea5c2b8add"><path d="M 270.921875 209.554688 L 255.320312 193.949219 L 287.441406 161.832031 L 303.042969 177.433594 Z M 270.921875 209.554688 " clip-rule="nonzero"/></clipPath><clipPath id="84ee15ee23"><path d="M 259 144 L 308 144 L 308 193 L 259 193 Z M 259 144 " clip-rule="nonzero"/></clipPath><clipPath id="cc70964dea"><path d="M 254.558594 168.316406 L 283.683594 139.195312 L 312.46875 167.980469 L 283.347656 197.101562 Z M 254.558594 168.316406 " clip-rule="nonzero"/></clipPath><clipPath id="8c4e0f33d0"><path d="M 263.046875 159.832031 L 275.109375 147.769531 C 277.359375 145.519531 280.410156 144.253906 283.59375 144.253906 C 286.777344 144.253906 289.828125 145.519531 292.078125 147.769531 L 303.894531 159.582031 C 306.144531 161.835938 307.410156 164.886719 307.410156 168.070312 C 307.410156 171.25 306.144531 174.304688 303.894531 176.554688 L 291.832031 188.617188 C 289.582031 190.867188 286.527344 192.132812 283.347656 192.132812 C 280.164062 192.132812 277.109375 190.867188 274.859375 188.617188 L 263.046875 176.800781 C 260.796875 174.550781 259.53125 171.5 259.53125 168.316406 C 259.53125 165.132812 260.796875 162.082031 263.046875 159.832031 Z M 263.046875 159.832031 " clip-rule="nonzero"/></clipPath><clipPath id="5062bac473"><path d="M 234 141 L 282 141 L 282 189 L 234 189 Z M 234 141 " clip-rule="nonzero"/></clipPath><clipPath id="9681738249"><path d="M 254.65625 141.867188 L 281.144531 168.359375 L 260.75 188.753906 L 234.257812 162.265625 Z M 254.65625 141.867188 " clip-rule="nonzero"/></clipPath><clipPath id="0913c317f4"><path d="M 63 211.519531 L 130.871094 211.519531 L 130.871094 279.769531 L 63 279.769531 Z M 63 211.519531 " clip-rule="nonzero"/></clipPath></defs><g clip-path="url(#40e08ed7a6)"><rect x="-37.5" width="450" fill="#ffffff" y="-37.499999" height="449.999989" fill-opacity="1"/></g><path fill="#ed1954" d="M 190.597656 168.25 L 243.40625 115.441406 C 247.734375 111.117188 247.734375 104.101562 243.40625 99.773438 C 239.082031 95.449219 232.066406 95.445312 227.738281 99.773438 L 174.929688 152.582031 L 122.125 99.773438 C 117.796875 95.445312 110.78125 95.445312 106.457031 99.773438 C 102.128906 104.101562 102.128906 111.117188 106.457031 115.441406 L 159.261719 168.25 L 106.457031 221.058594 C 102.128906 225.386719 102.128906 232.398438 106.457031 236.726562 C 108.617188 238.890625 111.453125 239.972656 114.289062 239.972656 C 117.125 239.972656 119.960938 238.890625 122.125 236.726562 L 174.929688 183.917969 L 227.738281 236.726562 C 229.902344 238.890625 232.738281 239.972656 235.574219 239.972656 C 238.410156 239.972656 241.246094 238.890625 243.40625 236.726562 C 247.734375 232.398438 247.734375 225.386719 243.40625 221.058594 Z M 190.597656 168.25 " fill-opacity="1" fill-rule="nonzero"/><g clip-path="url(#93522c76c9)"><path fill="#ed1954" d="M 312.414062 168.25 L 365.222656 115.441406 C 369.550781 111.117188 369.550781 104.101562 365.222656 99.773438 C 360.898438 95.449219 353.882812 95.445312 349.554688 99.773438 L 296.746094 152.582031 L 243.9375 99.773438 C 239.613281 95.445312 232.597656 95.445312 228.269531 99.773438 C 223.945312 104.101562 223.945312 111.117188 228.269531 115.441406 L 281.078125 168.25 L 228.269531 221.058594 C 223.945312 225.386719 223.945312 232.398438 228.269531 236.726562 C 230.433594 238.890625 233.269531 239.972656 236.105469 239.972656 C 238.941406 239.972656 241.777344 238.890625 243.9375 236.726562 L 296.746094 183.917969 L 349.554688 236.726562 C 351.71875 238.890625 354.554688 239.972656 357.390625 239.972656 C 360.226562 239.972656 363.058594 238.890625 365.222656 236.726562 C 369.550781 232.398438 369.550781 225.386719 365.222656 221.058594 Z M 312.414062 168.25 " fill-opacity="1" fill-rule="nonzero"/></g><g clip-path="url(#e8aa6989d3)"><g clip-path="url(#b0b7267c45)"><path fill="#ed1954" d="M 255.304688 142.46875 L 270.925781 126.847656 L 303.023438 158.941406 L 287.402344 174.566406 Z M 255.304688 142.46875 " fill-opacity="1" fill-rule="nonzero"/></g></g><g clip-path="url(#194f2b57d2)"><g clip-path="url(#ea5c2b8add)"><path fill="#ed1954" d="M 270.921875 209.554688 L 255.320312 193.949219 L 287.4375 161.832031 L 303.039062 177.433594 Z M 270.921875 209.554688 " fill-opacity="1" fill-rule="nonzero"/></g></g><g clip-path="url(#84ee15ee23)"><g clip-path="url(#cc70964dea)"><g clip-path="url(#8c4e0f33d0)"><path fill="#ed1954" d="M 254.558594 168.316406 L 283.570312 139.304688 L 312.355469 168.09375 L 283.347656 197.101562 Z M 254.558594 168.316406 " fill-opacity="1" fill-rule="nonzero"/></g></g></g><g clip-path="url(#5062bac473)"><g clip-path="url(#9681738249)"><path fill="#ffffff" d="M 254.65625 141.867188 L 281.109375 168.320312 L 260.710938 188.714844 L 234.257812 162.265625 Z M 254.65625 141.867188 " fill-opacity="1" fill-rule="nonzero"/></g></g><g clip-path="url(#0913c317f4)"><path fill="#ed1954" d="M 151.121094 207.878906 L 203.929688 155.070312 C 208.253906 150.746094 208.253906 143.730469 203.929688 139.402344 C 199.601562 135.078125 192.585938 135.078125 188.261719 139.402344 L 135.453125 192.210938 L 82.644531 139.402344 C 78.316406 135.078125 71.304688 135.078125 66.976562 139.402344 C 62.648438 143.730469 62.648438 150.746094 66.976562 155.070312 L 119.785156 207.878906 L 66.976562 260.6875 C 62.648438 265.015625 62.648438 272.03125 66.976562 276.355469 C 69.140625 278.519531 71.976562 279.601562 74.808594 279.601562 C 77.644531 279.601562 80.480469 278.519531 82.644531 276.355469 L 135.453125 223.546875 L 188.261719 276.355469 C 190.425781 278.519531 193.257812 279.601562 196.09375 279.601562 C 198.929688 279.601562 201.765625 278.519531 203.929688 276.355469 C 208.253906 272.03125 208.253906 265.015625 203.929688 260.6875 Z M 151.121094 207.878906 " fill-opacity="1" fill-rule="nonzero"/></g></svg>