<svg xmlns="http://www.w3.org/2000/svg" xmlns:xlink="http://www.w3.org/1999/xlink" width="1080" zoomAndPan="magnify" viewBox="0 0 810 809.999993" height="1080" preserveAspectRatio="xMidYMid meet" version="1.0"><defs><g/></defs><g fill="#ffffff" fill-opacity="1"><g transform="translate(84.758285, 504.676413)"><g><path d="M 322.828125 -94.625 L 320.109375 -89.1875 C 319.503906 -87.382812 318.21875 -84.441406 316.25 -80.359375 C 314.289062 -76.285156 313.007812 -73.945312 312.40625 -73.34375 C 310.289062 -71.53125 308.703125 -68.8125 307.640625 -65.1875 C 306.585938 -61.570312 303.5 -58.554688 298.375 -56.140625 C 295.351562 -51.910156 292.410156 -49.269531 289.546875 -48.21875 C 286.679688 -47.164062 285.25 -46.488281 285.25 -46.1875 C 284.039062 -44.976562 281.09375 -43.238281 276.40625 -40.96875 C 271.726562 -38.707031 267.734375 -36.820312 264.421875 -35.3125 L 262.15625 -25.359375 C 257.320312 -14.796875 251.8125 -4.003906 245.625 7.015625 C 239.4375 18.035156 232.191406 28.144531 223.890625 37.34375 C 215.585938 46.550781 206.003906 53.875 195.140625 59.3125 C 184.273438 65.65625 174.085938 70.257812 164.578125 73.125 C 155.066406 75.988281 145.785156 77.421875 136.734375 77.421875 C 134.617188 77.421875 132.503906 77.34375 130.390625 77.1875 C 128.285156 77.039062 126.175781 76.816406 124.0625 76.515625 C 116.507812 75.304688 111 74.097656 107.53125 72.890625 C 104.0625 71.679688 101.492188 70.472656 99.828125 69.265625 C 98.171875 68.066406 95.832031 66.863281 92.8125 65.65625 C 88.894531 62.332031 86.332031 59.082031 85.125 55.90625 C 83.914062 52.738281 83.613281 47.6875 84.21875 40.75 C 84.519531 38.03125 84.519531 36.21875 84.21875 35.3125 C 83.914062 34.40625 83.765625 33.5 83.765625 32.59375 C 84.367188 28.070312 86.78125 22.867188 91 16.984375 C 95.226562 11.097656 100.210938 5.738281 105.953125 0.90625 C 109.566406 -1.507812 114.164062 -4.148438 119.75 -7.015625 C 125.332031 -9.878906 130.84375 -12.519531 136.28125 -14.9375 C 141.71875 -17.351562 145.789062 -18.863281 148.5 -19.46875 L 151.671875 -18.5625 C 151.972656 -18.5625 152.125 -18.5625 152.125 -18.5625 C 152.125 -18.5625 152.273438 -18.5625 152.578125 -18.5625 C 156.203125 -18.5625 160.273438 -19.921875 164.796875 -22.640625 C 169.328125 -25.359375 173.554688 -26.71875 177.484375 -26.71875 C 178.085938 -26.71875 178.460938 -26.71875 178.609375 -26.71875 C 178.765625 -26.71875 178.992188 -26.71875 179.296875 -26.71875 C 179.898438 -26.71875 180.425781 -27.921875 180.875 -30.328125 C 181.332031 -32.742188 181.785156 -35.234375 182.234375 -37.796875 C 182.691406 -40.367188 183.070312 -41.503906 183.375 -41.203125 C 185.1875 -45.429688 186.84375 -50.640625 188.34375 -56.828125 C 189.851562 -63.015625 191.0625 -69.425781 191.96875 -76.0625 C 192.570312 -83.007812 193.097656 -89.273438 193.546875 -94.859375 C 194.003906 -100.441406 193.78125 -104.894531 192.875 -108.21875 C 188.351562 -125.71875 180.503906 -136.128906 169.328125 -139.453125 L 166.171875 -143.984375 L 161.1875 -141.71875 C 159.675781 -141.414062 158.164062 -141.113281 156.65625 -140.8125 C 155.144531 -140.507812 153.484375 -140.359375 151.671875 -140.359375 C 150.460938 -140.359375 149.253906 -140.429688 148.046875 -140.578125 C 146.847656 -140.734375 145.492188 -140.960938 143.984375 -141.265625 C 139.148438 -141.867188 135.445312 -142.394531 132.875 -142.84375 C 130.3125 -143.300781 127.445312 -144.132812 124.28125 -145.34375 C 121.113281 -146.550781 115.90625 -148.507812 108.65625 -151.21875 L 110.46875 -161.640625 C 110.46875 -163.148438 110.390625 -164.582031 110.234375 -165.9375 C 110.085938 -167.289062 110.015625 -168.117188 110.015625 -168.421875 C 110.015625 -168.421875 110.691406 -170.234375 112.046875 -173.859375 C 113.410156 -177.484375 114.394531 -180.351562 115 -182.46875 C 116.207031 -183.070312 117.265625 -183.597656 118.171875 -184.046875 C 119.078125 -184.503906 119.53125 -185.335938 119.53125 -186.546875 C 119.832031 -187.441406 120.507812 -187.960938 121.5625 -188.109375 C 122.625 -188.265625 123.609375 -188.945312 124.515625 -190.15625 C 124.210938 -190.15625 125.945312 -191.132812 129.71875 -193.09375 C 133.488281 -195.0625 137.863281 -197.628906 142.84375 -200.796875 C 147.820312 -203.972656 151.820312 -207.21875 154.84375 -210.53125 C 161.488281 -218.082031 167.828125 -227.664062 173.859375 -239.28125 C 179.898438 -250.90625 185.03125 -262.601562 189.25 -274.375 C 193.476562 -286.144531 196.046875 -296.109375 196.953125 -304.265625 C 197.554688 -312.109375 197.328125 -317.613281 196.265625 -320.78125 C 195.210938 -323.945312 193.023438 -325.679688 189.703125 -325.984375 C 188.492188 -326.285156 186.457031 -328.171875 183.59375 -331.640625 C 180.726562 -335.117188 177.9375 -336.554688 175.21875 -335.953125 C 171.59375 -335.953125 169.023438 -335.648438 167.515625 -335.046875 C 166.015625 -334.441406 163.90625 -332.78125 161.1875 -330.0625 C 155.75 -326.144531 151.898438 -324.035156 149.640625 -323.734375 C 147.378906 -323.429688 145.039062 -322.375 142.625 -320.5625 L 127.6875 -306.0625 C 127.382812 -305.757812 126.175781 -304.023438 124.0625 -300.859375 C 121.945312 -297.691406 119.832031 -294.519531 117.71875 -291.34375 C 115.601562 -288.175781 114.242188 -286.441406 113.640625 -286.140625 C 111.828125 -281.921875 111.222656 -277.921875 111.828125 -274.140625 C 112.429688 -270.367188 112.882812 -265.992188 113.1875 -261.015625 C 113.488281 -256.035156 112.128906 -249.472656 109.109375 -241.328125 C 106.097656 -237.703125 104.59375 -234.832031 104.59375 -232.71875 C 104.289062 -231.8125 104.140625 -229.847656 104.140625 -226.828125 C 103.234375 -210.234375 101.875 -195.75 100.0625 -183.375 C 98.851562 -171.90625 97.566406 -161.867188 96.203125 -153.265625 C 94.847656 -144.660156 93.71875 -140.359375 92.8125 -140.359375 L 89.1875 -125.875 L 87.390625 -110.46875 L 83.765625 -88.296875 C 82.859375 -86.179688 82.023438 -83.914062 81.265625 -81.5 C 80.515625 -79.082031 79.988281 -76.664062 79.6875 -74.25 L 79.6875 -71.078125 C 79.382812 -65.953125 78.476562 -62.179688 76.96875 -59.765625 C 75.457031 -59.160156 74.019531 -57.421875 72.65625 -54.546875 C 71.300781 -51.679688 69.722656 -49.195312 67.921875 -47.09375 C 66.710938 -45.28125 65.957031 -43.84375 65.65625 -42.78125 C 65.351562 -41.726562 65.203125 -41.050781 65.203125 -40.75 L 64.296875 -33.046875 C 62.785156 -27.617188 61.878906 -22.488281 61.578125 -17.65625 C 60.066406 -14.632812 59.3125 -12.21875 59.3125 -10.40625 C 59.007812 -9.207031 59.007812 -8.078125 59.3125 -7.015625 C 59.613281 -5.960938 59.914062 -4.984375 60.21875 -4.078125 C 60.21875 -1.660156 60.21875 0.453125 60.21875 2.265625 C 60.21875 4.078125 60.367188 5.738281 60.671875 7.25 C 62.785156 8.757812 63.539062 11.472656 62.9375 15.390625 C 62.632812 18.109375 61.195312 19.921875 58.625 20.828125 C 56.0625 21.734375 53.875 22.1875 52.0625 22.1875 C 51.757812 22.1875 51.457031 22.109375 51.15625 21.953125 C 50.851562 21.804688 50.550781 21.734375 50.25 21.734375 C 49.945312 21.734375 49.644531 21.734375 49.34375 21.734375 C 49.050781 21.734375 48.601562 21.734375 48 21.734375 C 44.675781 21.734375 41.65625 22.863281 38.9375 25.125 C 36.21875 27.394531 32.898438 29.734375 28.984375 32.140625 C 26.566406 33.347656 24.148438 34.023438 21.734375 34.171875 C 19.316406 34.328125 16.75 34.40625 14.03125 34.40625 C 12.21875 34.101562 9.5 32.894531 5.875 30.78125 C 2.257812 28.675781 -0.90625 25.28125 -3.625 20.59375 C -6.34375 15.914062 -7.398438 9.957031 -6.796875 2.71875 C -6.191406 -0.601562 -5.507812 -3.617188 -4.75 -6.328125 C -4 -9.046875 -3.472656 -11.460938 -3.171875 -13.578125 C -2.265625 -15.992188 -1.660156 -18.410156 -1.359375 -20.828125 C -1.054688 -23.242188 -0.753906 -25.8125 -0.453125 -28.53125 C -0.453125 -28.53125 -0.453125 -29.28125 -0.453125 -30.78125 C -0.453125 -31.6875 -0.226562 -32.664062 0.21875 -33.71875 C 0.675781 -34.78125 1.054688 -35.914062 1.359375 -37.125 C 3.773438 -41.351562 5.4375 -45.503906 6.34375 -49.578125 C 7.25 -53.648438 8.304688 -59.765625 9.515625 -67.921875 L 10.40625 -78.78125 C 11.613281 -88.738281 13.046875 -99.601562 14.703125 -111.375 C 16.367188 -123.144531 17.957031 -134.921875 19.46875 -146.703125 L 23.09375 -185.640625 C 24.601562 -196.503906 26.1875 -208.878906 27.84375 -222.765625 C 29.5 -236.648438 31.15625 -250.609375 32.8125 -264.640625 C 34.476562 -278.671875 36.066406 -291.800781 37.578125 -304.03125 C 39.085938 -316.257812 40.296875 -326.144531 41.203125 -333.6875 C 38.179688 -339.726562 34.101562 -345.691406 28.96875 -351.578125 C 23.84375 -357.460938 21.582031 -362.363281 22.1875 -366.28125 C 22.1875 -367.789062 22.488281 -369.148438 23.09375 -370.359375 L 27.171875 -374.4375 C 29.578125 -376.550781 32.742188 -378.0625 36.671875 -378.96875 C 39.691406 -378.96875 43.765625 -379.644531 48.890625 -381 C 54.023438 -382.363281 59.15625 -383.945312 64.28125 -385.75 C 69.414062 -387.5625 73.191406 -389.222656 75.609375 -390.734375 C 76.210938 -390.734375 76.515625 -390.582031 76.515625 -390.28125 C 79.535156 -389.976562 82.554688 -388.316406 85.578125 -385.296875 C 85.878906 -385.296875 86.03125 -385.21875 86.03125 -385.0625 C 86.03125 -384.914062 86.179688 -384.84375 86.484375 -384.84375 C 88.890625 -384.25 90.695312 -383.347656 91.90625 -382.140625 L 97.34375 -374.890625 C 98.550781 -371.867188 99.757812 -368.472656 100.96875 -364.703125 C 102.175781 -360.929688 103.234375 -356.929688 104.140625 -352.703125 C 106.253906 -350.285156 107.988281 -347.492188 109.34375 -344.328125 C 110.695312 -341.160156 111.675781 -337.914062 112.28125 -334.59375 C 111.976562 -331.570312 111.828125 -328.398438 111.828125 -325.078125 C 111.828125 -321.765625 111.675781 -318.898438 111.375 -316.484375 L 111.375 -304.71875 C 112.882812 -306.519531 114.546875 -308.476562 116.359375 -310.59375 C 118.171875 -312.707031 119.226562 -314.367188 119.53125 -315.578125 C 120.132812 -316.785156 122.394531 -319.125 126.3125 -322.59375 C 130.238281 -326.0625 134.691406 -329.757812 139.671875 -333.6875 C 144.660156 -337.613281 148.660156 -340.632812 151.671875 -342.75 C 167.066406 -356.332031 183.519531 -363.125 201.03125 -363.125 C 203.144531 -363.125 205.332031 -363.125 207.59375 -363.125 C 209.851562 -363.125 212.039062 -362.820312 214.15625 -362.21875 C 227.132812 -360.40625 238 -355.570312 246.75 -347.71875 C 255.507812 -339.875 261.847656 -330.820312 265.765625 -320.5625 C 269.691406 -310.300781 271.050781 -300.035156 269.84375 -289.765625 C 267.726562 -270.453125 262.519531 -253.171875 254.21875 -237.921875 C 245.925781 -222.679688 234.835938 -208.117188 220.953125 -194.234375 C 214.003906 -186.085938 208.113281 -180.273438 203.28125 -176.796875 C 198.457031 -173.328125 194.6875 -170.6875 191.96875 -168.875 C 193.476562 -168.570312 195.363281 -168.195312 197.625 -167.75 C 199.894531 -167.300781 202.238281 -166.773438 204.65625 -166.171875 C 208.269531 -165.867188 211.8125 -164.28125 215.28125 -161.40625 C 218.757812 -158.539062 222.003906 -155.597656 225.015625 -152.578125 C 228.035156 -149.554688 230.148438 -147.445312 231.359375 -146.25 C 232.867188 -145.945312 234.226562 -145.566406 235.4375 -145.109375 C 236.644531 -144.660156 237.851562 -144.132812 239.0625 -143.53125 L 239.515625 -142.171875 C 241.023438 -140.960938 242.382812 -139.828125 243.59375 -138.765625 C 244.800781 -137.710938 246.003906 -136.429688 247.203125 -134.921875 C 246.898438 -133.710938 247.351562 -132.503906 248.5625 -131.296875 C 249.769531 -130.085938 250.222656 -127.523438 249.921875 -123.609375 C 249.921875 -123.003906 249.617188 -122.398438 249.015625 -121.796875 C 250.828125 -119.984375 252.941406 -117.941406 255.359375 -115.671875 C 257.773438 -113.410156 258.679688 -110.320312 258.078125 -106.40625 L 258.078125 -103.234375 C 259.285156 -100.210938 260.414062 -97.191406 261.46875 -94.171875 C 262.53125 -91.148438 263.515625 -87.679688 264.421875 -83.765625 L 265.78125 -72.4375 C 266.375 -69.726562 266.742188 -67.015625 266.890625 -64.296875 C 267.046875 -61.578125 266.972656 -58.707031 266.671875 -55.6875 C 276.035156 -59.007812 283.582031 -62.476562 289.3125 -66.09375 C 295.050781 -69.71875 300.484375 -75.304688 305.609375 -82.859375 C 310.140625 -90.097656 313.535156 -94.925781 315.796875 -97.34375 C 318.066406 -99.757812 319.957031 -100.96875 321.46875 -100.96875 C 323.582031 -100.363281 324.640625 -99.757812 324.640625 -99.15625 C 324.335938 -98.550781 324.109375 -97.945312 323.953125 -97.34375 C 323.804688 -96.738281 323.429688 -95.832031 322.828125 -94.625 Z M 140.8125 -1.8125 C 136.28125 0 131.070312 2.710938 125.1875 6.328125 C 119.300781 9.953125 114.171875 13.726562 109.796875 17.65625 C 105.421875 21.582031 103.234375 24.753906 103.234375 27.171875 C 102.929688 28.078125 103.304688 28.828125 104.359375 29.421875 C 105.421875 30.023438 106.40625 30.476562 107.3125 30.78125 C 109.71875 30.78125 111.828125 30.703125 113.640625 30.546875 C 115.453125 30.398438 117.414062 30.03125 119.53125 29.4375 C 124.664062 28.832031 131.679688 25.582031 140.578125 19.6875 C 149.484375 13.800781 156.804688 7.539062 162.546875 0.90625 L 174.3125 -13.125 L 172.046875 -13.125 L 166.625 -11.3125 C 162.695312 -9.507812 158.46875 -7.925781 153.9375 -6.5625 C 149.414062 -5.207031 145.039062 -3.625 140.8125 -1.8125 Z M 140.8125 -1.8125 "/></g></g></g><g fill="#ffffff" fill-opacity="1"><g transform="translate(389.47263, 504.676413)"><g><path d="M 75.609375 -116.359375 C 75.609375 -115.453125 75.609375 -114.546875 75.609375 -113.640625 C 75.609375 -112.734375 75.757812 -111.828125 76.0625 -110.921875 C 74.851562 -107.304688 73.644531 -103.835938 72.4375 -100.515625 C 71.226562 -97.191406 70.023438 -94.171875 68.828125 -91.453125 C 68.523438 -89.640625 67.617188 -87.378906 66.109375 -84.671875 L 66.109375 -81.953125 C 61.578125 -69.578125 58.101562 -57.503906 55.6875 -45.734375 L 56.140625 -45.28125 C 56.441406 -44.070312 55.988281 -42.863281 54.78125 -41.65625 L 52.96875 -39.84375 C 51.457031 -36.820312 50.175781 -34.101562 49.125 -31.6875 C 48.070312 -29.28125 47.546875 -27.019531 47.546875 -24.90625 C 47.546875 -21.28125 49.503906 -19.015625 53.421875 -18.109375 C 56.441406 -19.316406 61.875 -23.390625 69.71875 -30.328125 C 72.4375 -31.835938 75.078125 -33.875 77.640625 -36.4375 C 80.210938 -39.007812 82.554688 -41.503906 84.671875 -43.921875 L 87.84375 -47.546875 C 93.269531 -54.179688 99 -61.875 105.03125 -70.625 C 111.070312 -79.382812 116.804688 -88.363281 122.234375 -97.5625 C 127.671875 -106.769531 132.351562 -115.300781 136.28125 -123.15625 C 138.394531 -125.269531 140.660156 -126.328125 143.078125 -126.328125 C 144.585938 -126.328125 145.789062 -125.644531 146.6875 -124.28125 C 147.59375 -122.925781 147.445312 -120.738281 146.25 -117.71875 C 146.851562 -116.8125 146.703125 -115.90625 145.796875 -115 L 145.796875 -114.546875 C 143.984375 -112.128906 142.472656 -109.71875 141.265625 -107.3125 L 137.640625 -100.96875 C 134.617188 -96.132812 131.445312 -90.695312 128.125 -84.65625 C 124.8125 -78.625 121.039062 -72.441406 116.8125 -66.109375 L 116.8125 -66.5625 L 115.453125 -62.9375 L 115.453125 -62.484375 L 112.734375 -57.5 C 110.015625 -53.570312 107.144531 -49.492188 104.125 -45.265625 C 101.113281 -41.046875 97.796875 -36.972656 94.171875 -33.046875 L 90.09375 -28.53125 C 87.988281 -26.414062 85.953125 -24.148438 83.984375 -21.734375 C 82.023438 -19.316406 79.988281 -17.203125 77.875 -15.390625 L 75.609375 -14.03125 L 76.0625 -14.03125 C 73.039062 -11.914062 70.097656 -9.953125 67.234375 -8.140625 C 64.367188 -6.335938 61.578125 -4.832031 58.859375 -3.625 L 58.859375 -4.078125 C 55.835938 -2.566406 52.742188 -1.582031 49.578125 -1.125 C 46.410156 -0.675781 43.164062 -0.453125 39.84375 -0.453125 C 30.789062 -2.265625 23.546875 -6.265625 18.109375 -12.453125 C 12.671875 -18.640625 8.820312 -25.957031 6.5625 -34.40625 C 4.300781 -42.863281 3.171875 -51.164062 3.171875 -59.3125 C 3.171875 -60.820312 3.242188 -62.253906 3.390625 -63.609375 C 3.546875 -64.972656 3.625 -66.257812 3.625 -67.46875 L 3.625 -75.609375 C 4.226562 -80.140625 4.984375 -84.816406 5.890625 -89.640625 C 6.796875 -94.472656 7.851562 -99.609375 9.0625 -105.046875 L 16.296875 -128.125 C 19.015625 -134.769531 21.65625 -141.335938 24.21875 -147.828125 C 26.789062 -154.316406 28.976562 -160.582031 30.78125 -166.625 L 30.78125 -169.328125 C 32.289062 -176.578125 35.160156 -181.109375 39.390625 -182.921875 C 40.898438 -184.128906 43.164062 -184.734375 46.1875 -184.734375 C 55.238281 -184.734375 62.328125 -180.804688 67.453125 -172.953125 C 72.585938 -165.109375 75.757812 -157.257812 76.96875 -149.40625 C 77.570312 -144.582031 76.816406 -139 74.703125 -132.65625 L 73.796875 -129.03125 C 73.796875 -128.425781 73.945312 -128.125 74.25 -128.125 L 74.703125 -126.78125 C 75.003906 -126.175781 75.15625 -125.34375 75.15625 -124.28125 C 75.15625 -123.226562 75.15625 -122.398438 75.15625 -121.796875 C 75.457031 -121.191406 75.609375 -120.285156 75.609375 -119.078125 C 75.609375 -117.867188 75.609375 -116.960938 75.609375 -116.359375 Z M 86.484375 -301.09375 C 89.796875 -301.394531 94.242188 -300.488281 99.828125 -298.375 C 105.421875 -296.257812 110.175781 -293.539062 114.09375 -290.21875 C 117.113281 -287.800781 119.078125 -285.085938 119.984375 -282.078125 C 120.285156 -279.660156 120.054688 -277.46875 119.296875 -275.5 C 118.546875 -273.539062 117.414062 -271.65625 115.90625 -269.84375 L 116.359375 -269.84375 C 115.753906 -268.632812 115.070312 -267.273438 114.3125 -265.765625 C 113.5625 -264.265625 112.582031 -262.757812 111.375 -261.25 L 105.953125 -252.1875 C 102.023438 -245.550781 99.078125 -241.328125 97.109375 -239.515625 C 95.148438 -237.703125 92.359375 -236.796875 88.734375 -236.796875 C 82.703125 -237.398438 76.664062 -239.515625 70.625 -243.140625 C 67.613281 -245.847656 64.820312 -249.769531 62.25 -254.90625 C 59.6875 -260.039062 58.40625 -265.625 58.40625 -271.65625 C 58.101562 -276.488281 58.707031 -280.488281 60.21875 -283.65625 C 61.726562 -286.820312 63.539062 -289.460938 65.65625 -291.578125 C 72.59375 -297.921875 79.535156 -301.09375 86.484375 -301.09375 Z M 86.484375 -301.09375 "/></g></g></g><g fill="#ffffff" fill-opacity="1"><g transform="translate(498.590288, 504.676413)"><g><path d="M 36.21875 -152.125 L 36.21875 -151.671875 C 39.539062 -155.597656 43.160156 -159.070312 47.078125 -162.09375 C 51.003906 -165.113281 55.082031 -167.828125 59.3125 -170.234375 L 62.03125 -171.59375 C 66.257812 -174.3125 70.9375 -176.578125 76.0625 -178.390625 C 81.195312 -180.203125 86.175781 -181.109375 91 -181.109375 C 95.832031 -181.109375 100.515625 -180.203125 105.046875 -178.390625 L 106.40625 -177.484375 C 115.15625 -172.953125 123.378906 -168.046875 131.078125 -162.765625 C 138.773438 -157.484375 142.472656 -150.164062 142.171875 -140.8125 C 142.773438 -139.601562 142.394531 -138.316406 141.03125 -136.953125 C 139.675781 -135.597656 137.035156 -134.921875 133.109375 -134.921875 C 132.503906 -134.921875 131.820312 -134.992188 131.0625 -135.140625 C 130.3125 -135.296875 129.632812 -135.375 129.03125 -135.375 C 124.207031 -135.070312 118.320312 -133.410156 111.375 -130.390625 C 104.4375 -127.378906 97.570312 -123.679688 90.78125 -119.296875 C 83.988281 -114.921875 78.628906 -110.472656 74.703125 -105.953125 C 71.378906 -101.421875 68.207031 -96.515625 65.1875 -91.234375 C 62.175781 -85.953125 59.613281 -80.441406 57.5 -74.703125 C 56.894531 -73.191406 56.289062 -70.171875 55.6875 -65.640625 C 55.082031 -61.117188 54.476562 -56.742188 53.875 -52.515625 L 52.515625 -44.375 L 52.515625 -42.5625 C 51.609375 -38.632812 50.851562 -34.859375 50.25 -31.234375 C 49.644531 -27.617188 49.34375 -24.453125 49.34375 -21.734375 C 49.34375 -18.710938 50.25 -15.164062 52.0625 -11.09375 C 53.875 -7.019531 55.835938 -4.679688 57.953125 -4.078125 C 61.578125 -2.265625 65.648438 -1.359375 70.171875 -1.359375 C 75.304688 -1.359375 79.609375 -2.035156 83.078125 -3.390625 C 86.554688 -4.753906 89.800781 -7.242188 92.8125 -10.859375 C 93.71875 -12.066406 94.546875 -13.273438 95.296875 -14.484375 C 96.054688 -15.691406 97.039062 -16.597656 98.25 -17.203125 C 102.476562 -20.523438 105.945312 -24.375 108.65625 -28.75 C 111.375 -33.125 113.035156 -36.671875 113.640625 -39.390625 C 109.421875 -42.109375 105.269531 -47.316406 101.1875 -55.015625 C 97.113281 -62.710938 94.472656 -70.632812 93.265625 -78.78125 C 94.773438 -89.644531 96.507812 -97.191406 98.46875 -101.421875 C 100.4375 -105.648438 102.703125 -108.210938 105.265625 -109.109375 C 107.828125 -110.015625 110.46875 -110.46875 113.1875 -110.46875 C 116.507812 -110.46875 120.28125 -109.640625 124.5 -107.984375 C 128.726562 -106.328125 131.296875 -103.234375 132.203125 -98.703125 L 134.015625 -98.703125 C 134.921875 -97.796875 135.375 -95.984375 135.375 -93.265625 C 135.976562 -92.054688 136.351562 -90.773438 136.5 -89.421875 C 136.65625 -88.066406 136.582031 -86.179688 136.28125 -83.765625 C 136.28125 -83.765625 136.582031 -83.460938 137.1875 -82.859375 L 138.546875 -81.046875 C 140.054688 -79.234375 140.660156 -77.644531 140.359375 -76.28125 C 140.054688 -74.925781 139.601562 -73.34375 139 -71.53125 L 138.09375 -67.921875 L 139.453125 -57.953125 C 139.453125 -57.046875 138.46875 -54.707031 136.5 -50.9375 C 134.539062 -47.164062 132.804688 -43.769531 131.296875 -40.75 L 133.5625 -40.75 C 134.46875 -40.445312 135.296875 -40.296875 136.046875 -40.296875 C 136.804688 -40.296875 137.335938 -40.296875 137.640625 -40.296875 C 142.472656 -40.296875 147.679688 -42.785156 153.265625 -47.765625 C 158.847656 -52.742188 164.128906 -58.25 169.109375 -64.28125 C 174.085938 -70.320312 177.9375 -75.15625 180.65625 -78.78125 C 181.257812 -79.988281 181.5625 -80.441406 181.5625 -80.140625 C 183.070312 -81.953125 184.425781 -83.910156 185.625 -86.015625 C 186.832031 -88.128906 188.039062 -90.242188 189.25 -92.359375 C 193.476562 -99.609375 197.859375 -106.851562 202.390625 -114.09375 C 203.898438 -115 205.40625 -115.453125 206.90625 -115.453125 C 209.019531 -115.453125 210.679688 -114.617188 211.890625 -112.953125 C 213.097656 -111.296875 212.644531 -108.660156 210.53125 -105.046875 C 208.414062 -98.703125 204.640625 -91.078125 199.203125 -82.171875 C 193.773438 -73.273438 187.4375 -64.523438 180.1875 -55.921875 C 172.945312 -47.316406 165.40625 -40.144531 157.5625 -34.40625 C 149.71875 -28.675781 142.171875 -25.8125 134.921875 -25.8125 C 133.410156 -25.8125 131.972656 -25.882812 130.609375 -26.03125 C 129.253906 -26.1875 127.828125 -26.566406 126.328125 -27.171875 L 121.796875 -20.828125 C 121.492188 -19.921875 120.4375 -19.015625 118.625 -18.109375 C 116.8125 -17.203125 115.601562 -15.539062 115 -13.125 C 114.695312 -12.820312 114.546875 -12.519531 114.546875 -12.21875 C 114.546875 -11.914062 114.546875 -11.765625 114.546875 -11.765625 C 113.335938 -9.359375 111.070312 -6.644531 107.75 -3.625 C 104.4375 -0.601562 101.269531 1.660156 98.25 3.171875 C 97.34375 3.773438 96.4375 4.378906 95.53125 4.984375 C 94.625 5.585938 93.867188 6.191406 93.265625 6.796875 C 91.148438 8.304688 89.1875 9.585938 87.375 10.640625 C 85.570312 11.691406 83.160156 12.519531 80.140625 13.125 C 77.117188 14.332031 74.25 15.085938 71.53125 15.390625 C 68.820312 15.691406 65.804688 15.84375 62.484375 15.84375 C 61.878906 15.84375 61.125 15.84375 60.21875 15.84375 C 59.3125 15.84375 58.40625 15.84375 57.5 15.84375 L 44.828125 9.953125 C 43.617188 9.953125 42.179688 9.800781 40.515625 9.5 C 38.859375 9.207031 37.425781 8.910156 36.21875 8.609375 C 25.957031 3.472656 17.503906 -3.316406 10.859375 -11.765625 C 4.222656 -20.222656 0.453125 -30.335938 -0.453125 -42.109375 C -0.453125 -45.429688 -0.375 -49.957031 -0.21875 -55.6875 C -0.0703125 -61.425781 0.300781 -67.160156 0.90625 -72.890625 C 1.507812 -78.628906 1.960938 -83.007812 2.265625 -86.03125 C 2.867188 -97.5 6.640625 -109.34375 13.578125 -121.5625 C 20.523438 -133.789062 28.070312 -143.976562 36.21875 -152.125 Z M 119.984375 -51.15625 L 124.0625 -62.03125 C 124.363281 -63.238281 124.816406 -64.21875 125.421875 -64.96875 C 126.023438 -65.726562 126.328125 -66.5625 126.328125 -67.46875 C 126.328125 -67.769531 126.398438 -67.992188 126.546875 -68.140625 C 126.703125 -68.296875 126.78125 -68.523438 126.78125 -68.828125 L 124.515625 -78.78125 C 123.910156 -82.707031 122.097656 -86.175781 119.078125 -89.1875 C 118.773438 -89.488281 118.171875 -89.863281 117.265625 -90.3125 C 116.359375 -90.769531 115.453125 -91 114.546875 -91 C 114.546875 -91.300781 114.09375 -91 113.1875 -90.09375 C 113.1875 -90.09375 112.882812 -88.890625 112.28125 -86.484375 C 112.582031 -85.878906 112.582031 -85.046875 112.28125 -83.984375 C 111.976562 -82.929688 111.675781 -81.953125 111.375 -81.046875 C 111.070312 -79.835938 110.921875 -77.796875 110.921875 -74.921875 C 110.921875 -72.054688 111.976562 -67.304688 114.09375 -60.671875 L 114.09375 -57.5 Z M 119.984375 -51.15625 "/></g></g></g><g fill="#ffffff" fill-opacity="1"><g transform="translate(399.443336, 644.096462)"><g><path d="M 101.75 -29.1875 L 100.90625 -27.984375 C 100.988281 -27.910156 101.148438 -27.671875 101.390625 -27.265625 C 101.628906 -26.867188 101.707031 -26.585938 101.625 -26.421875 C 101.46875 -26.023438 101.304688 -25.1875 101.140625 -23.90625 C 101.140625 -23.582031 101.117188 -23.28125 101.078125 -23 C 101.046875 -22.71875 101.066406 -22.5 101.140625 -22.34375 L 100.90625 -21.375 C 100.75 -21.0625 100.507812 -20.625 100.1875 -20.0625 C 99.863281 -19.5 99.625 -19.019531 99.46875 -18.625 C 99.144531 -17.34375 98.960938 -16.160156 98.921875 -15.078125 C 98.878906 -13.992188 98.78125 -12.890625 98.625 -11.765625 C 98.382812 -10.242188 98.222656 -8.722656 98.140625 -7.203125 C 98.054688 -5.679688 98.054688 -4.117188 98.140625 -2.515625 C 98.140625 -1.484375 98.160156 -0.609375 98.203125 0.109375 C 98.242188 0.835938 98.34375 1.441406 98.5 1.921875 C 98.738281 3.523438 99.140625 4.644531 99.703125 5.28125 L 99.9375 5.640625 C 99.863281 5.960938 99.984375 6.382812 100.296875 6.90625 C 100.617188 7.425781 100.984375 7.726562 101.390625 7.8125 C 102.109375 7.8125 102.75 7.609375 103.3125 7.203125 C 104.425781 6.804688 105.484375 6.023438 106.484375 4.859375 C 107.492188 3.703125 108.394531 2.5625 109.1875 1.4375 L 110.875 -0.96875 L 111.46875 -2.046875 C 111.71875 -2.523438 111.941406 -2.90625 112.140625 -3.1875 C 112.335938 -3.46875 112.515625 -3.765625 112.671875 -4.078125 L 117.84375 -12.015625 L 119.28125 -14.53125 C 120.5625 -16.289062 121.203125 -17.289062 121.203125 -17.53125 L 121.6875 -18.625 L 122.40625 -19.453125 C 122.96875 -20.492188 123.390625 -21.234375 123.671875 -21.671875 C 123.953125 -22.117188 124.210938 -22.503906 124.453125 -22.828125 C 124.773438 -23.304688 125.09375 -23.585938 125.40625 -23.671875 C 125.644531 -22.867188 125.765625 -22.023438 125.765625 -21.140625 C 125.765625 -21.054688 125.742188 -20.992188 125.703125 -20.953125 C 125.671875 -20.921875 125.65625 -20.820312 125.65625 -20.65625 C 125.488281 -20.101562 125.285156 -19.601562 125.046875 -19.15625 C 124.804688 -18.71875 124.566406 -18.257812 124.328125 -17.78125 L 123.84375 -16.453125 L 122.765625 -14.421875 C 122.679688 -14.097656 122.539062 -13.816406 122.34375 -13.578125 C 122.144531 -13.335938 121.96875 -13.097656 121.8125 -12.859375 C 121.644531 -12.453125 121.320312 -11.929688 120.84375 -11.296875 C 120.445312 -10.492188 119.6875 -9.171875 118.5625 -7.328125 C 117.4375 -5.484375 116.273438 -3.597656 115.078125 -1.671875 C 113.878906 0.242188 112.957031 1.800781 112.3125 3 L 110.03125 5.765625 L 109.796875 6.359375 C 109.148438 7.160156 108.46875 8.039062 107.75 9 C 107.03125 9.96875 106.191406 10.851562 105.234375 11.65625 L 104.03125 12.734375 C 102.90625 14.253906 101.898438 15.332031 101.015625 15.96875 C 100.140625 16.613281 99.382812 17.015625 98.75 17.171875 C 98.019531 17.171875 97.414062 17.289062 96.9375 17.53125 L 96.34375 17.90625 C 96.175781 17.90625 96.015625 17.941406 95.859375 18.015625 L 94.78125 18.375 C 94.375 18.457031 94.007812 18.554688 93.6875 18.671875 C 93.375 18.796875 93.015625 18.859375 92.609375 18.859375 C 92.535156 18.859375 92.457031 18.859375 92.375 18.859375 C 92.289062 18.859375 92.210938 18.859375 92.140625 18.859375 C 91.492188 18.773438 90.890625 18.570312 90.328125 18.25 C 89.773438 17.9375 89.175781 17.578125 88.53125 17.171875 C 88.207031 17.171875 87.925781 17.109375 87.6875 16.984375 C 87.445312 16.867188 87.207031 16.773438 86.96875 16.703125 C 85.6875 15.816406 84.503906 14.648438 83.421875 13.203125 C 82.347656 11.765625 81.367188 10.207031 80.484375 8.53125 L 79.515625 6.25 C 78.316406 3.757812 77.554688 0.59375 77.234375 -3.25 C 76.921875 -7.09375 76.960938 -11.335938 77.359375 -15.984375 C 77.359375 -16.222656 77.359375 -16.476562 77.359375 -16.75 C 77.359375 -17.03125 77.398438 -17.289062 77.484375 -17.53125 C 77.554688 -19.0625 77.671875 -20.546875 77.828125 -21.984375 C 77.992188 -23.421875 78.160156 -24.863281 78.328125 -26.3125 L 78.6875 -28.828125 C 78.925781 -30.273438 79.046875 -31.078125 79.046875 -31.234375 C 79.046875 -31.390625 79.0625 -31.488281 79.09375 -31.53125 C 79.132812 -31.570312 79.273438 -32.191406 79.515625 -33.390625 L 82.890625 -45.53125 C 83.046875 -46.007812 83.179688 -46.488281 83.296875 -46.96875 C 83.421875 -47.445312 83.566406 -47.925781 83.734375 -48.40625 L 87.453125 -62.953125 L 90.578125 -74 C 90.972656 -75.363281 91.289062 -76.382812 91.53125 -77.0625 C 91.769531 -77.738281 91.929688 -78.238281 92.015625 -78.5625 C 92.015625 -78.71875 92.09375 -79.035156 92.25 -79.515625 C 92.414062 -80.003906 92.578125 -80.523438 92.734375 -81.078125 C 92.898438 -81.722656 93.101562 -82.460938 93.34375 -83.296875 C 93.582031 -84.140625 93.738281 -84.765625 93.8125 -85.171875 L 94.0625 -86.25 C 94.132812 -86.726562 94.191406 -87.144531 94.234375 -87.5 C 94.273438 -87.863281 94.253906 -88.128906 94.171875 -88.296875 C 93.535156 -88.296875 93.035156 -88.253906 92.671875 -88.171875 C 92.316406 -88.085938 91.816406 -87.847656 91.171875 -87.453125 L 90.578125 -87.09375 C 90.097656 -86.925781 89.65625 -86.660156 89.25 -86.296875 C 88.851562 -85.941406 88.453125 -85.523438 88.046875 -85.046875 L 86.125 -83 C 85.96875 -82.84375 85.75 -82.601562 85.46875 -82.28125 C 85.1875 -81.96875 84.882812 -81.609375 84.5625 -81.203125 C 84.164062 -80.804688 83.925781 -80.609375 83.84375 -80.609375 L 83.359375 -80.125 C 82.804688 -79.40625 82.207031 -78.382812 81.5625 -77.0625 C 80.925781 -75.738281 80.207031 -74.238281 79.40625 -72.5625 L 74.359375 -62.34375 C 74.117188 -61.945312 73.878906 -61.523438 73.640625 -61.078125 C 73.398438 -60.640625 73.160156 -60.140625 72.921875 -59.578125 L 70.390625 -53.703125 L 69.796875 -52.609375 C 69.628906 -52.296875 69.425781 -51.976562 69.1875 -51.65625 C 68.945312 -51.332031 68.75 -50.929688 68.59375 -50.453125 L 67.75 -47.453125 C 67.425781 -46.648438 67.164062 -45.765625 66.96875 -44.796875 C 66.769531 -43.835938 66.507812 -42.921875 66.1875 -42.046875 L 65.703125 -40.359375 C 64.984375 -37.710938 64.34375 -35.953125 63.78125 -35.078125 C 63.46875 -34.273438 63.171875 -33.613281 62.890625 -33.09375 C 62.609375 -32.570312 62.382812 -32.148438 62.21875 -31.828125 C 62.144531 -31.585938 62.023438 -31.265625 61.859375 -30.859375 C 61.703125 -30.460938 61.546875 -30.023438 61.390625 -29.546875 L 60.546875 -27.03125 C 60.460938 -26.789062 60.359375 -26.425781 60.234375 -25.9375 C 60.117188 -25.457031 59.984375 -24.941406 59.828125 -24.390625 C 59.742188 -23.828125 59.460938 -23.304688 58.984375 -22.828125 L 58.375 -21.859375 C 58.0625 -21.296875 57.800781 -20.492188 57.59375 -19.453125 C 57.394531 -18.421875 57.175781 -17.441406 56.9375 -16.515625 C 56.695312 -15.597656 56.296875 -14.976562 55.734375 -14.65625 C 55.660156 -14.570312 55.5 -14.53125 55.25 -14.53125 C 54.695312 -14.53125 53.914062 -14.75 52.90625 -15.1875 C 51.90625 -15.632812 51.207031 -15.898438 50.8125 -15.984375 L 50.09375 -15.984375 C 47.851562 -16.140625 46.367188 -17.054688 45.640625 -18.734375 C 45.566406 -19.140625 45.488281 -19.5625 45.40625 -20 C 45.320312 -20.4375 45.242188 -20.9375 45.171875 -21.5 C 44.929688 -21.664062 44.769531 -22.1875 44.6875 -23.0625 C 44.601562 -23.945312 44.601562 -24.828125 44.6875 -25.703125 L 44.8125 -26.546875 C 44.882812 -27.023438 45.140625 -28.566406 45.578125 -31.171875 C 46.023438 -33.773438 46.609375 -36.921875 47.328125 -40.609375 L 49.125 -51.296875 C 49.445312 -53.140625 49.707031 -54.921875 49.90625 -56.640625 C 50.113281 -58.359375 50.253906 -60.019531 50.328125 -61.625 L 50.578125 -63.1875 L 51.53125 -74.234375 C 51.613281 -75.273438 51.675781 -76.253906 51.71875 -77.171875 C 51.757812 -78.097656 51.78125 -79.003906 51.78125 -79.890625 L 51.65625 -81.203125 L 51.65625 -87.203125 L 51.40625 -91.421875 C 51.40625 -92.054688 51.328125 -92.695312 51.171875 -93.34375 L 51.171875 -93.8125 C 51.015625 -95.019531 50.695312 -95.703125 50.21875 -95.859375 C 49.8125 -95.859375 49.40625 -95.757812 49 -95.5625 C 48.601562 -95.363281 48.125 -94.941406 47.5625 -94.296875 C 47.164062 -94.054688 46.648438 -93.535156 46.015625 -92.734375 L 43.25 -89.609375 L 42.046875 -87.8125 C 41.566406 -87.007812 41.328125 -86.488281 41.328125 -86.25 L 39.515625 -84.09375 C 39.441406 -84.007812 39.382812 -83.925781 39.34375 -83.84375 C 39.300781 -83.769531 39.203125 -83.691406 39.046875 -83.609375 C 38.804688 -83.285156 38.546875 -82.960938 38.265625 -82.640625 C 37.984375 -82.328125 37.757812 -82.007812 37.59375 -81.6875 L 37.125 -80.96875 C 36.957031 -80.644531 36.773438 -80.257812 36.578125 -79.8125 C 36.378906 -79.375 36.117188 -78.957031 35.796875 -78.5625 L 34 -75.5625 L 32.1875 -71.46875 C 31.875 -70.59375 31.515625 -69.832031 31.109375 -69.1875 C 30.628906 -68.625 30.347656 -68.066406 30.265625 -67.515625 C 29.953125 -66.953125 29.710938 -66.3125 29.546875 -65.59375 C 29.472656 -64.789062 29.351562 -64.066406 29.1875 -63.421875 L 28.953125 -62.21875 C 28.304688 -59.34375 27.625 -55.984375 26.90625 -52.140625 C 26.1875 -48.296875 25.75 -44.929688 25.59375 -42.046875 C 25.75 -41.398438 25.75 -40.117188 25.59375 -38.203125 C 25.507812 -37.878906 25.46875 -37.554688 25.46875 -37.234375 C 25.46875 -36.921875 25.46875 -36.5625 25.46875 -36.15625 C 25.707031 -35.195312 25.707031 -34.835938 25.46875 -35.078125 C 25.46875 -34.597656 25.503906 -33.976562 25.578125 -33.21875 C 25.660156 -32.457031 25.703125 -31.875 25.703125 -31.46875 C 25.703125 -30.664062 25.582031 -29.90625 25.34375 -29.1875 C 25.34375 -28.789062 25.382812 -28.507812 25.46875 -28.34375 C 25.46875 -28.269531 25.445312 -28.191406 25.40625 -28.109375 C 25.363281 -28.023438 25.382812 -27.90625 25.46875 -27.75 L 25.21875 -25.59375 C 25.144531 -25.1875 25.046875 -24.378906 24.921875 -23.171875 C 24.804688 -21.972656 24.664062 -20.710938 24.5 -19.390625 C 24.34375 -18.078125 24.1875 -17.0625 24.03125 -16.34375 L 23.546875 -14.78125 C 23.460938 -14.457031 23.359375 -14.132812 23.234375 -13.8125 C 23.117188 -13.488281 23.0625 -13.171875 23.0625 -12.859375 L 23.1875 -12.5 C 23.1875 -11.53125 22.707031 -10.445312 21.75 -9.25 L 20.0625 -4.8125 C 19.90625 -4.488281 19.6875 -4.144531 19.40625 -3.78125 C 19.125 -3.425781 18.898438 -3.25 18.734375 -3.25 L 17.78125 -1.6875 C 17.613281 -1.28125 17.410156 -0.875 17.171875 -0.46875 C 16.929688 -0.0703125 16.65625 0.203125 16.34375 0.359375 C 16.101562 0.515625 15.84375 0.613281 15.5625 0.65625 C 15.28125 0.695312 14.976562 0.71875 14.65625 0.71875 C 14.332031 0.800781 14.007812 0.863281 13.6875 0.90625 C 13.375 0.945312 13.015625 0.96875 12.609375 0.96875 C 12.128906 1.039062 11.628906 0.695312 11.109375 -0.0625 C 10.585938 -0.820312 10.046875 -1.242188 9.484375 -1.328125 C 9.171875 -1.398438 8.875 -1.476562 8.59375 -1.5625 C 8.3125 -1.644531 8.050781 -1.722656 7.8125 -1.796875 L 6.609375 -2.15625 C 6.046875 -2.394531 5.523438 -2.914062 5.046875 -3.71875 C 4.566406 -4.519531 4.164062 -5.203125 3.84375 -5.765625 L 3.359375 -6.359375 C 2.796875 -7.085938 2.414062 -7.953125 2.21875 -8.953125 C 2.019531 -9.953125 1.84375 -11.171875 1.6875 -12.609375 L 1.6875 -14.046875 C 1.6875 -14.535156 1.664062 -15.019531 1.625 -15.5 C 1.582031 -15.976562 1.5625 -16.457031 1.5625 -16.9375 L 1.796875 -19.703125 C 1.796875 -19.859375 1.796875 -20.054688 1.796875 -20.296875 C 1.796875 -20.535156 1.835938 -20.773438 1.921875 -21.015625 L 1.921875 -21.265625 L 3.84375 -35.671875 L 4.078125 -39.640625 L 4.328125 -41.796875 C 4.890625 -45.003906 5.390625 -48.171875 5.828125 -51.296875 C 6.265625 -54.421875 6.644531 -57.382812 6.96875 -60.1875 L 7.203125 -63.546875 C 7.367188 -64.671875 7.507812 -65.8125 7.625 -66.96875 C 7.75 -68.132812 7.847656 -69.234375 7.921875 -70.265625 C 8.003906 -71.546875 8.265625 -72.75 8.703125 -73.875 C 9.148438 -75 9.375 -76.039062 9.375 -77 L 9.84375 -79.890625 C 9.769531 -80.046875 9.789062 -80.40625 9.90625 -80.96875 C 10.03125 -81.53125 10.050781 -81.890625 9.96875 -82.046875 C 9.8125 -82.441406 9.851562 -83.117188 10.09375 -84.078125 C 10.332031 -85.046875 10.570312 -86.03125 10.8125 -87.03125 C 11.050781 -88.03125 10.929688 -88.769531 10.453125 -89.25 C 9.734375 -90.207031 9.613281 -91.109375 10.09375 -91.953125 C 10.570312 -92.796875 10.609375 -93.816406 10.203125 -95.015625 C 10.046875 -95.734375 9.847656 -96.570312 9.609375 -97.53125 C 9.367188 -98.5 9.25 -99.179688 9.25 -99.578125 L 9.125 -100.546875 C 9.050781 -100.941406 8.929688 -101.316406 8.765625 -101.671875 C 8.609375 -102.035156 8.53125 -102.300781 8.53125 -102.46875 C 8.363281 -102.707031 8.28125 -102.925781 8.28125 -103.125 C 8.28125 -103.320312 8.242188 -103.503906 8.171875 -103.671875 C 8.171875 -104.148438 8.207031 -104.507812 8.28125 -104.75 L 9.015625 -105.109375 C 9.566406 -105.671875 10.242188 -105.953125 11.046875 -105.953125 C 11.929688 -105.953125 12.394531 -105.988281 12.4375 -106.0625 C 12.476562 -106.144531 13.175781 -106.304688 14.53125 -106.546875 L 17.0625 -106.546875 C 17.132812 -106.546875 17.191406 -106.546875 17.234375 -106.546875 C 17.273438 -106.546875 17.335938 -106.546875 17.421875 -106.546875 C 17.898438 -106.546875 17.957031 -106.328125 17.59375 -105.890625 C 17.238281 -105.453125 17.097656 -105.234375 17.171875 -105.234375 C 17.171875 -105.234375 17.191406 -105.234375 17.234375 -105.234375 C 17.273438 -105.234375 17.335938 -105.269531 17.421875 -105.34375 C 18.054688 -105.664062 18.773438 -105.828125 19.578125 -105.828125 C 20.378906 -105.671875 21.019531 -105.429688 21.5 -105.109375 C 21.976562 -105.023438 22.5 -104.625 23.0625 -103.90625 C 23.46875 -103.582031 23.890625 -103.140625 24.328125 -102.578125 C 24.765625 -102.023438 25.222656 -101.390625 25.703125 -100.671875 C 26.347656 -99.941406 26.828125 -98.796875 27.140625 -97.234375 C 27.460938 -95.679688 27.722656 -94.203125 27.921875 -92.796875 C 28.128906 -91.390625 28.351562 -90.445312 28.59375 -89.96875 C 28.59375 -89.726562 28.453125 -89.40625 28.171875 -89 C 27.890625 -88.601562 27.789062 -88.285156 27.875 -88.046875 C 28.59375 -86.929688 29.09375 -85.691406 29.375 -84.328125 C 29.65625 -82.960938 29.832031 -81.441406 29.90625 -79.765625 L 30.625 -80.25 C 31.507812 -81.769531 32.269531 -83.085938 32.90625 -84.203125 C 33.550781 -85.328125 34.15625 -86.289062 34.71875 -87.09375 C 35.832031 -89.25 37.332031 -91.609375 39.21875 -94.171875 C 41.101562 -96.734375 42.847656 -98.976562 44.453125 -100.90625 L 45.53125 -102.21875 L 49.015625 -105.703125 C 50.128906 -106.585938 51.410156 -107.269531 52.859375 -107.75 C 53.492188 -107.914062 54.015625 -108 54.421875 -108 C 54.578125 -108 54.773438 -107.976562 55.015625 -107.9375 C 55.253906 -107.894531 55.457031 -107.875 55.625 -107.875 C 56.019531 -107.789062 56.4375 -107.648438 56.875 -107.453125 C 57.320312 -107.253906 57.820312 -106.992188 58.375 -106.671875 L 58.859375 -106.4375 C 59.578125 -106.03125 60.273438 -105.566406 60.953125 -105.046875 C 61.640625 -104.523438 62.304688 -103.863281 62.953125 -103.0625 C 64.785156 -100.425781 66.203125 -97.804688 67.203125 -95.203125 C 68.210938 -92.597656 68.71875 -89.691406 68.71875 -86.484375 C 68.875 -82.160156 68.875 -78.117188 68.71875 -74.359375 C 68.71875 -73.878906 68.695312 -73.414062 68.65625 -72.96875 C 68.613281 -72.53125 68.632812 -72.113281 68.71875 -71.71875 C 68.632812 -71.3125 68.550781 -70.867188 68.46875 -70.390625 C 68.382812 -69.910156 68.304688 -69.472656 68.234375 -69.078125 C 67.828125 -67.472656 67.625 -66.191406 67.625 -65.234375 C 67.789062 -65.546875 67.972656 -65.898438 68.171875 -66.296875 C 68.367188 -66.703125 68.628906 -67.144531 68.953125 -67.625 C 69.035156 -67.707031 69.09375 -67.785156 69.125 -67.859375 C 69.164062 -67.941406 69.226562 -68.023438 69.3125 -68.109375 L 70.515625 -70.640625 C 71.148438 -71.515625 71.769531 -72.507812 72.375 -73.625 C 72.976562 -74.75 73.597656 -75.832031 74.234375 -76.875 C 74.472656 -77.28125 74.710938 -77.722656 74.953125 -78.203125 C 75.191406 -78.679688 75.429688 -79.117188 75.671875 -79.515625 C 75.921875 -79.835938 76.164062 -80.195312 76.40625 -80.59375 C 76.644531 -81 76.882812 -81.363281 77.125 -81.6875 L 78.4375 -83.96875 L 81.8125 -88.890625 C 82.125 -89.296875 82.398438 -89.695312 82.640625 -90.09375 C 82.878906 -90.488281 83.160156 -90.847656 83.484375 -91.171875 C 85.410156 -93.660156 87.289062 -95.703125 89.125 -97.296875 C 89.289062 -97.460938 89.472656 -97.625 89.671875 -97.78125 C 89.867188 -97.9375 90.007812 -98.054688 90.09375 -98.140625 C 91.050781 -99.265625 92.253906 -100.144531 93.703125 -100.78125 C 95.140625 -101.582031 96.539062 -102.0625 97.90625 -102.21875 L 98.75 -102.21875 C 98.988281 -102.300781 99.1875 -102.363281 99.34375 -102.40625 C 99.5 -102.445312 99.660156 -102.46875 99.828125 -102.46875 C 100.703125 -102.382812 101.457031 -102.242188 102.09375 -102.046875 C 102.738281 -101.847656 103.34375 -101.585938 103.90625 -101.265625 C 104.789062 -101.023438 105.429688 -100.664062 105.828125 -100.1875 L 106.3125 -99.578125 C 106.394531 -99.578125 106.453125 -99.535156 106.484375 -99.453125 C 106.523438 -99.378906 106.546875 -99.34375 106.546875 -99.34375 L 107.625 -98.265625 C 108.664062 -97.140625 109.226562 -96.296875 109.3125 -95.734375 C 109.3125 -95.578125 109.367188 -95.335938 109.484375 -95.015625 C 109.609375 -94.691406 109.671875 -94.332031 109.671875 -93.9375 C 110.078125 -93.375 110.476562 -92.753906 110.875 -92.078125 C 111.269531 -91.398438 111.59375 -90.695312 111.84375 -89.96875 C 112.082031 -86.207031 112.082031 -82.242188 111.84375 -78.078125 C 111.757812 -76.398438 111.632812 -74.660156 111.46875 -72.859375 C 111.3125 -71.054688 111.113281 -69.15625 110.875 -67.15625 C 110.789062 -66.269531 110.671875 -65.347656 110.515625 -64.390625 C 110.359375 -63.429688 110.195312 -62.46875 110.03125 -61.5 C 109.957031 -61.101562 109.898438 -60.703125 109.859375 -60.296875 C 109.816406 -59.898438 109.710938 -59.5 109.546875 -59.09375 L 109.1875 -57.78125 C 109.113281 -56.976562 108.972656 -56.195312 108.765625 -55.4375 C 108.566406 -54.675781 108.429688 -53.894531 108.359375 -53.09375 L 107.15625 -48.046875 C 106.914062 -47.085938 106.773438 -46.546875 106.734375 -46.421875 C 106.691406 -46.304688 106.648438 -46.269531 106.609375 -46.3125 C 106.566406 -46.351562 106.484375 -46.191406 106.359375 -45.828125 C 106.242188 -45.460938 105.988281 -44.5625 105.59375 -43.125 L 103.78125 -36.640625 L 102.46875 -34.46875 L 102.34375 -31 C 102.257812 -30.4375 102.15625 -30.09375 102.03125 -29.96875 C 101.914062 -29.851562 101.820312 -29.59375 101.75 -29.1875 Z M 101.75 -29.1875 "/></g></g></g><g fill="#ffffff" fill-opacity="1"><g transform="translate(522.809919, 644.096462)"><g><path d="M 10.453125 -8.40625 L 10.578125 -8.28125 L 10.8125 -7.09375 C 10.8125 -6.6875 10.890625 -6.164062 11.046875 -5.53125 C 11.210938 -5.207031 11.296875 -4.925781 11.296875 -4.6875 C 11.453125 -3.488281 11.890625 -2.890625 12.609375 -2.890625 L 12.96875 -2.890625 C 14.09375 -2.890625 15.035156 -3.1875 15.796875 -3.78125 C 16.554688 -4.382812 17.296875 -5.085938 18.015625 -5.890625 C 18.972656 -7.242188 19.953125 -8.878906 20.953125 -10.796875 C 21.960938 -12.722656 22.90625 -14.570312 23.78125 -16.34375 C 24.425781 -17.695312 25.066406 -18.992188 25.703125 -20.234375 C 26.347656 -21.484375 26.953125 -22.546875 27.515625 -23.421875 C 27.753906 -23.898438 27.972656 -24.457031 28.171875 -25.09375 C 28.367188 -25.738281 28.546875 -26.382812 28.703125 -27.03125 C 28.941406 -27.75 29.179688 -28.285156 29.421875 -28.640625 C 29.671875 -29.003906 29.875 -29.304688 30.03125 -29.546875 C 30.269531 -29.785156 30.59375 -30.425781 31 -31.46875 C 31 -32.03125 31.378906 -32.429688 32.140625 -32.671875 C 32.898438 -32.910156 33.738281 -33.070312 34.65625 -33.15625 C 35.570312 -33.238281 36.234375 -33.28125 36.640625 -33.28125 C 37.753906 -33.28125 38.789062 -33.21875 39.75 -33.09375 C 40.71875 -32.976562 41.644531 -32.476562 42.53125 -31.59375 C 42.601562 -31.4375 42.640625 -31.273438 42.640625 -31.109375 L 42.640625 -31 L 42.890625 -30.875 L 42.765625 -30.875 C 43.085938 -30.632812 43.367188 -30.394531 43.609375 -30.15625 C 43.847656 -29.914062 44.003906 -29.550781 44.078125 -29.0625 C 44.160156 -28.90625 44.0625 -28.445312 43.78125 -27.6875 C 43.5 -26.925781 43.203125 -26.144531 42.890625 -25.34375 C 42.328125 -23.976562 42.046875 -23.097656 42.046875 -22.703125 C 42.046875 -22.378906 41.960938 -21.976562 41.796875 -21.5 C 41.640625 -21.175781 41.460938 -20.675781 41.265625 -20 C 41.066406 -19.320312 40.96875 -18.300781 40.96875 -16.9375 C 40.882812 -15.976562 40.738281 -15.117188 40.53125 -14.359375 C 40.332031 -13.597656 40.078125 -12.851562 39.765625 -12.125 C 39.597656 -11.644531 39.4375 -11.164062 39.28125 -10.6875 C 39.125 -10.207031 38.960938 -9.6875 38.796875 -9.125 L 37.359375 -4.8125 C 36.554688 -3.207031 36.195312 -2.203125 36.28125 -1.796875 C 36.28125 -1.640625 36.5 -1.519531 36.9375 -1.4375 C 37.375 -1.363281 37.753906 -1.328125 38.078125 -1.328125 C 39.035156 -1.328125 40.113281 -1.84375 41.3125 -2.875 C 42.519531 -3.914062 43.703125 -5.175781 44.859375 -6.65625 C 46.023438 -8.144531 46.96875 -9.488281 47.6875 -10.6875 L 51.296875 -17.0625 C 51.617188 -17.539062 52.019531 -18.117188 52.5 -18.796875 C 52.976562 -19.484375 53.414062 -20.304688 53.8125 -21.265625 C 54.050781 -21.828125 54.410156 -22.46875 54.890625 -23.1875 C 55.378906 -23.90625 55.78125 -24.546875 56.09375 -25.109375 L 58.984375 -29.671875 C 59.378906 -30.066406 59.859375 -30.265625 60.421875 -30.265625 C 61.140625 -30.265625 61.539062 -29.863281 61.625 -29.0625 C 61.625 -28.90625 61.625 -28.726562 61.625 -28.53125 C 61.625 -28.332031 61.582031 -28.070312 61.5 -27.75 C 61.5 -27.507812 61.140625 -26.828125 60.421875 -25.703125 C 59.941406 -25.066406 59.320312 -24.1875 58.5625 -23.0625 C 57.800781 -21.9375 56.898438 -20.457031 55.859375 -18.625 C 55.453125 -18.0625 54.847656 -17.15625 54.046875 -15.90625 C 53.253906 -14.664062 52.414062 -13.328125 51.53125 -11.890625 C 50.570312 -10.367188 49.648438 -8.882812 48.765625 -7.4375 C 47.890625 -6 47.210938 -4.960938 46.734375 -4.328125 C 46.410156 -3.609375 45.726562 -2.6875 44.6875 -1.5625 C 43.644531 -0.4375 42.539062 0.539062 41.375 1.375 C 40.21875 2.21875 39.238281 2.679688 38.4375 2.765625 L 37.484375 3.125 C 37.003906 3.28125 36.539062 3.4375 36.09375 3.59375 C 35.65625 3.757812 35.195312 3.84375 34.71875 3.84375 C 33.519531 3.84375 32.316406 3.398438 31.109375 2.515625 C 29.910156 1.640625 28.867188 0.582031 27.984375 -0.65625 C 27.109375 -1.894531 26.507812 -3 26.1875 -3.96875 C 25.789062 -5.007812 25.59375 -6.128906 25.59375 -7.328125 C 25.507812 -7.648438 25.46875 -7.988281 25.46875 -8.34375 C 25.46875 -8.707031 25.46875 -9.050781 25.46875 -9.375 C 25.46875 -9.6875 25.46875 -10.003906 25.46875 -10.328125 C 25.46875 -10.648438 25.425781 -11.007812 25.34375 -11.40625 L 25.21875 -12.375 C 25.21875 -12.457031 25.238281 -12.515625 25.28125 -12.546875 C 25.320312 -12.585938 25.34375 -12.648438 25.34375 -12.734375 C 25.425781 -13.210938 25.46875 -13.410156 25.46875 -13.328125 L 23.78125 -10.8125 L 23.78125 -10.9375 L 21.5 -6.359375 C 21.175781 -6.046875 20.9375 -5.75 20.78125 -5.46875 C 20.625 -5.1875 20.460938 -4.882812 20.296875 -4.5625 C 19.660156 -3.519531 18.960938 -2.554688 18.203125 -1.671875 C 17.441406 -0.796875 16.703125 -0.316406 15.984375 -0.234375 L 15.5 0.125 C 14.695312 0.6875 13.953125 1.207031 13.265625 1.6875 C 12.585938 2.164062 11.96875 2.40625 11.40625 2.40625 C 9.488281 2.40625 7.445312 2.003906 5.28125 1.203125 C 3.125 0.398438 1.265625 -0.878906 -0.296875 -2.640625 C -1.859375 -4.398438 -2.800781 -6.722656 -3.125 -9.609375 C -3.28125 -12.328125 -2.738281 -15.425781 -1.5 -18.90625 C -0.257812 -22.394531 1.28125 -25.660156 3.125 -28.703125 L 4.203125 -31.109375 C 5.722656 -33.109375 7.34375 -35.085938 9.0625 -37.046875 C 10.789062 -39.015625 12.695312 -40.71875 14.78125 -42.15625 L 16.578125 -43 L 16.453125 -43 C 18.054688 -44.125 20.019531 -45.046875 22.34375 -45.765625 C 24.664062 -46.484375 26.46875 -46.84375 27.75 -46.84375 L 28.34375 -46.84375 C 29.46875 -46.601562 30.75 -46.019531 32.1875 -45.09375 C 33.632812 -44.175781 34.9375 -43.195312 36.09375 -42.15625 C 37.257812 -41.125 37.878906 -40.207031 37.953125 -39.40625 C 38.117188 -38.125 37.640625 -37.363281 36.515625 -37.125 C 36.359375 -37.195312 36.078125 -37.234375 35.671875 -37.234375 C 34.390625 -37.234375 32.585938 -36.953125 30.265625 -36.390625 C 27.941406 -35.835938 26.101562 -34.835938 24.75 -33.390625 L 22.578125 -31.359375 C 21.535156 -30.390625 20.453125 -29.34375 19.328125 -28.21875 C 18.210938 -27.101562 17.492188 -25.863281 17.171875 -24.5 C 16.617188 -23.539062 16.140625 -22.617188 15.734375 -21.734375 C 15.335938 -20.859375 14.9375 -19.941406 14.53125 -18.984375 L 13.453125 -16.703125 C 13.054688 -15.816406 12.675781 -14.992188 12.3125 -14.234375 C 11.945312 -13.472656 11.566406 -12.53125 11.171875 -11.40625 L 11.046875 -10.6875 L 11.046875 -10.8125 C 10.972656 -10.40625 10.851562 -9.941406 10.6875 -9.421875 C 10.53125 -8.910156 10.453125 -8.570312 10.453125 -8.40625 Z M 10.453125 -8.40625 "/></g></g></g><g fill="#ffffff" fill-opacity="1"><g transform="translate(576.024534, 644.096462)"><g><path d="M 58.015625 -24.984375 L 57.171875 -23.421875 C 55.253906 -20.222656 53.351562 -17.257812 51.46875 -14.53125 C 49.59375 -11.8125 47.253906 -9.332031 44.453125 -7.09375 C 43.890625 -6.6875 43.40625 -6.222656 43 -5.703125 C 42.601562 -5.179688 42.164062 -4.679688 41.6875 -4.203125 C 41.207031 -3.640625 40.707031 -3.078125 40.1875 -2.515625 C 39.664062 -1.960938 39.203125 -1.523438 38.796875 -1.203125 C 37.835938 -0.722656 36.632812 -0.164062 35.1875 0.46875 C 33.75 1.113281 32.46875 1.675781 31.34375 2.15625 C 30.226562 2.644531 29.628906 2.890625 29.546875 2.890625 C 28.828125 2.722656 28.328125 2.519531 28.046875 2.28125 C 27.765625 2.039062 27.425781 1.722656 27.03125 1.328125 L 22.828125 -3.609375 L 22.46875 -4.4375 C 21.90625 -5.476562 21.582031 -6.28125 21.5 -6.84375 C 21.414062 -7.25 21.453125 -7.75 21.609375 -8.34375 C 21.773438 -8.945312 21.898438 -9.488281 21.984375 -9.96875 C 22.066406 -10.375 22.144531 -10.875 22.21875 -11.46875 C 22.300781 -12.070312 22.34375 -12.535156 22.34375 -12.859375 C 22.1875 -13.253906 21.625 -14.007812 20.65625 -15.125 C 19.695312 -16.25 18.78125 -16.929688 17.90625 -17.171875 C 17.257812 -17.171875 16.695312 -17.289062 16.21875 -17.53125 C 15.894531 -17.613281 15.59375 -17.695312 15.3125 -17.78125 C 15.03125 -17.863281 14.8125 -17.90625 14.65625 -17.90625 C 14.332031 -17.90625 14.128906 -17.660156 14.046875 -17.171875 C 13.972656 -16.691406 13.851562 -16.132812 13.6875 -15.5 C 13.613281 -14.9375 13.515625 -14.351562 13.390625 -13.75 C 13.273438 -13.15625 13.015625 -12.65625 12.609375 -12.25 C 12.128906 -11.769531 11.769531 -11.289062 11.53125 -10.8125 L 10.9375 -9.96875 C 10.851562 -9.726562 10.726562 -9.425781 10.5625 -9.0625 C 10.40625 -8.707031 10.285156 -8.367188 10.203125 -8.046875 C 10.128906 -7.648438 10.007812 -7.226562 9.84375 -6.78125 C 9.6875 -6.34375 9.488281 -6.046875 9.25 -5.890625 C 9.164062 -5.566406 8.960938 -5.265625 8.640625 -4.984375 C 8.328125 -4.703125 8.007812 -4.484375 7.6875 -4.328125 C 7.289062 -4.003906 6.929688 -3.640625 6.609375 -3.234375 C 6.285156 -2.835938 6.285156 -2.398438 6.609375 -1.921875 C 6.523438 -1.679688 6.222656 -1.0625 5.703125 -0.0625 C 5.179688 0.9375 4.601562 1.4375 3.96875 1.4375 C 3.25 1.4375 2.707031 1.457031 2.34375 1.5 C 1.976562 1.539062 1.675781 1.5625 1.4375 1.5625 L -0.234375 1.5625 C -1.359375 1.5625 -1.921875 1.117188 -1.921875 0.234375 C -2.003906 -0.878906 -1.960938 -2.054688 -1.796875 -3.296875 C -1.640625 -4.546875 -1.441406 -5.691406 -1.203125 -6.734375 C -0.960938 -8.085938 -0.660156 -9.425781 -0.296875 -10.75 C 0.0546875 -12.070312 0.394531 -13.332031 0.71875 -14.53125 C 0.882812 -15.414062 1.085938 -16.238281 1.328125 -17 C 1.566406 -17.757812 1.765625 -18.5 1.921875 -19.21875 C 2.160156 -20.5 2.441406 -21.835938 2.765625 -23.234375 C 3.085938 -24.640625 3.40625 -25.984375 3.71875 -27.265625 L 5.640625 -33.75 L 7.5625 -42.53125 L 8.046875 -43.84375 L 8.171875 -44.6875 C 8.328125 -45.40625 8.484375 -46.144531 8.640625 -46.90625 C 8.804688 -47.664062 8.96875 -48.40625 9.125 -49.125 L 10.09375 -53.328125 L 12.609375 -66.546875 L 13.453125 -70.265625 L 14.53125 -73.15625 L 14.53125 -73.03125 C 14.769531 -74.070312 15.109375 -75.191406 15.546875 -76.390625 C 15.992188 -77.597656 16.695312 -78.640625 17.65625 -79.515625 C 18.613281 -80.398438 19.9375 -80.84375 21.625 -80.84375 C 22.34375 -80.84375 23.300781 -80.703125 24.5 -80.421875 C 25.707031 -80.140625 26.550781 -79.800781 27.03125 -79.40625 C 27.351562 -78.925781 27.632812 -78.601562 27.875 -78.4375 C 28.269531 -77.957031 28.628906 -77.476562 28.953125 -77 C 29.273438 -76.519531 29.472656 -75.757812 29.546875 -74.71875 C 29.628906 -74.394531 29.628906 -74.050781 29.546875 -73.6875 C 29.472656 -73.332031 29.394531 -73.035156 29.3125 -72.796875 L 28.109375 -69.3125 C 27.867188 -68.75 27.726562 -68.285156 27.6875 -67.921875 C 27.644531 -67.566406 27.585938 -67.269531 27.515625 -67.03125 C 27.347656 -66.3125 27.023438 -65.269531 26.546875 -63.90625 L 24.859375 -53.21875 C 24.785156 -52.738281 24.726562 -52.238281 24.6875 -51.71875 C 24.644531 -51.195312 24.625 -50.695312 24.625 -50.21875 L 23.90625 -46.609375 C 23.90625 -46.285156 23.84375 -45.863281 23.71875 -45.34375 C 23.601562 -44.820312 23.320312 -43.878906 22.875 -42.515625 C 22.4375 -41.160156 21.738281 -39.039062 20.78125 -36.15625 C 20.695312 -35.832031 20.632812 -35.53125 20.59375 -35.25 C 20.5625 -34.976562 20.503906 -34.757812 20.421875 -34.59375 C 20.421875 -34.113281 20.378906 -33.753906 20.296875 -33.515625 C 20.140625 -33.035156 19.921875 -32.554688 19.640625 -32.078125 C 19.359375 -31.597656 19.097656 -31.113281 18.859375 -30.625 C 18.617188 -30.144531 18.378906 -29.625 18.140625 -29.0625 C 17.898438 -28.507812 17.617188 -27.789062 17.296875 -26.90625 L 15.140625 -22.828125 L 20.1875 -25.46875 C 21.382812 -26.1875 22.421875 -26.882812 23.296875 -27.5625 C 24.179688 -28.25 25.023438 -29.394531 25.828125 -31 L 28.46875 -33.640625 C 28.789062 -33.878906 29.03125 -34.117188 29.1875 -34.359375 C 29.351562 -34.597656 29.515625 -34.835938 29.671875 -35.078125 C 29.910156 -35.472656 30.171875 -35.851562 30.453125 -36.21875 C 30.734375 -36.582031 31.035156 -36.921875 31.359375 -37.234375 C 31.992188 -37.878906 32.507812 -38.582031 32.90625 -39.34375 C 33.3125 -40.101562 33.675781 -40.84375 34 -41.5625 L 34.59375 -42.765625 C 34.675781 -42.921875 34.71875 -43 34.71875 -43 C 34.632812 -43.238281 34.472656 -43.359375 34.234375 -43.359375 L 32.671875 -42.890625 C 31.234375 -42.484375 30.070312 -42.28125 29.1875 -42.28125 C 28.226562 -42.28125 27.707031 -42.757812 27.625 -43.71875 C 27.625 -44.125 27.703125 -44.484375 27.859375 -44.796875 C 28.023438 -45.117188 28.46875 -45.441406 29.1875 -45.765625 L 32.3125 -46.96875 L 32.546875 -46.96875 C 33.515625 -47.363281 34.476562 -47.660156 35.4375 -47.859375 C 36.394531 -48.066406 37.351562 -48.171875 38.3125 -48.171875 C 39.519531 -48.171875 40.863281 -47.867188 42.34375 -47.265625 C 43.820312 -46.671875 45.125 -45.8125 46.25 -44.6875 C 47.375 -43.5625 47.972656 -42.238281 48.046875 -40.71875 C 48.128906 -40.320312 48.128906 -39.941406 48.046875 -39.578125 C 47.972656 -39.222656 47.851562 -38.84375 47.6875 -38.4375 C 47.363281 -36.914062 46.640625 -35.453125 45.515625 -34.046875 C 44.398438 -32.648438 43.203125 -31.3125 41.921875 -30.03125 L 41.5625 -29.546875 C 41.40625 -29.222656 41.242188 -29.023438 41.078125 -28.953125 C 40.273438 -28.066406 39.414062 -27.34375 38.5 -26.78125 C 37.582031 -26.226562 36.601562 -25.707031 35.5625 -25.21875 L 35.5625 -25.34375 L 33.640625 -24.265625 C 32.753906 -23.941406 31.867188 -23.71875 30.984375 -23.59375 C 30.109375 -23.476562 29.226562 -23.421875 28.34375 -23.421875 L 28.109375 -23.421875 L 29.3125 -22.9375 C 32.59375 -21.65625 34.472656 -18.816406 34.953125 -14.421875 C 34.953125 -13.691406 34.953125 -12.925781 34.953125 -12.125 C 34.953125 -11.332031 34.914062 -10.613281 34.84375 -9.96875 L 34.84375 -8.765625 C 34.757812 -8.441406 34.613281 -8.140625 34.40625 -7.859375 C 34.207031 -7.585938 34.03125 -7.289062 33.875 -6.96875 L 33.28125 -6.125 L 33.515625 -5.046875 C 33.597656 -4.722656 33.675781 -4.34375 33.75 -3.90625 C 33.832031 -3.46875 33.992188 -3.25 34.234375 -3.25 C 35.035156 -3.25 35.9375 -3.664062 36.9375 -4.5 C 37.9375 -5.34375 38.640625 -5.925781 39.046875 -6.25 L 38.921875 -6.25 L 40.84375 -7.921875 C 41.238281 -8.328125 41.632812 -8.6875 42.03125 -9 C 42.4375 -9.320312 42.800781 -9.6875 43.125 -10.09375 C 44.800781 -11.613281 46.257812 -13.234375 47.5 -14.953125 C 48.75 -16.671875 49.929688 -18.453125 51.046875 -20.296875 L 51.890625 -21.859375 C 52.296875 -22.503906 52.695312 -23.125 53.09375 -23.71875 C 53.5 -24.320312 53.78125 -24.820312 53.9375 -25.21875 C 54.175781 -25.625 54.375 -26.085938 54.53125 -26.609375 C 54.695312 -27.128906 54.898438 -27.671875 55.140625 -28.234375 C 55.535156 -29.347656 55.953125 -30.425781 56.390625 -31.46875 C 56.835938 -32.507812 57.378906 -33.148438 58.015625 -33.390625 C 58.097656 -33.234375 58.179688 -33.15625 58.265625 -33.15625 L 58.625 -32.921875 C 58.9375 -32.597656 59.09375 -32.195312 59.09375 -31.71875 C 59.175781 -31.394531 59.195312 -31.113281 59.15625 -30.875 C 59.113281 -30.632812 59.054688 -30.394531 58.984375 -30.15625 C 58.898438 -29.832031 58.835938 -29.550781 58.796875 -29.3125 C 58.753906 -29.070312 58.734375 -28.789062 58.734375 -28.46875 C 58.898438 -27.507812 58.660156 -26.347656 58.015625 -24.984375 Z M 58.015625 -24.984375 "/></g></g></g><g fill="#ffffff" fill-opacity="1"><g transform="translate(627.197033, 644.096462)"><g><path d="M 31.359375 -28.34375 L 30.75 -27.875 C 29.226562 -25.707031 27.304688 -23.742188 24.984375 -21.984375 C 24.503906 -21.421875 23.722656 -20.675781 22.640625 -19.75 C 21.554688 -18.832031 20.492188 -17.992188 19.453125 -17.234375 C 18.421875 -16.472656 17.660156 -15.972656 17.171875 -15.734375 L 14.171875 -14.296875 C 13.609375 -13.648438 13.25 -12.664062 13.09375 -11.34375 C 12.9375 -10.03125 12.859375 -8.648438 12.859375 -7.203125 C 12.859375 -6.085938 12.894531 -4.988281 12.96875 -3.90625 C 13.050781 -2.820312 13.132812 -1.921875 13.21875 -1.203125 C 13.289062 -0.554688 13.785156 -0.0351562 14.703125 0.359375 C 15.628906 0.765625 16.613281 0.96875 17.65625 0.96875 C 18.851562 0.96875 20.535156 0.425781 22.703125 -0.65625 C 24.867188 -1.738281 27.234375 -3.300781 29.796875 -5.34375 C 32.359375 -7.382812 34.757812 -9.847656 37 -12.734375 C 37.15625 -13.128906 37.375 -13.507812 37.65625 -13.875 C 37.9375 -14.238281 38.15625 -14.578125 38.3125 -14.890625 C 38.71875 -15.535156 39.335938 -16.296875 40.171875 -17.171875 C 41.015625 -18.054688 41.71875 -19.019531 42.28125 -20.0625 C 43.40625 -21.90625 44.503906 -23.6875 45.578125 -25.40625 C 46.660156 -27.125 47.484375 -28.066406 48.046875 -28.234375 C 48.453125 -28.472656 48.8125 -28.59375 49.125 -28.59375 L 49.734375 -28.828125 L 49.734375 -28.703125 C 49.890625 -28.785156 49.988281 -28.847656 50.03125 -28.890625 C 50.070312 -28.929688 50.09375 -28.953125 50.09375 -28.953125 C 50.25 -28.953125 50.367188 -28.671875 50.453125 -28.109375 C 50.535156 -27.460938 50.316406 -26.738281 49.796875 -25.9375 C 49.273438 -25.144531 48.570312 -24.1875 47.6875 -23.0625 C 47.363281 -22.425781 46.878906 -21.601562 46.234375 -20.59375 C 45.597656 -19.59375 44.921875 -18.65625 44.203125 -17.78125 L 43.609375 -16.8125 C 43.609375 -16.738281 43.523438 -16.539062 43.359375 -16.21875 L 43 -15.140625 L 40.609375 -12.015625 C 39.878906 -11.054688 39.035156 -10.070312 38.078125 -9.0625 C 37.117188 -8.0625 36.359375 -7.082031 35.796875 -6.125 L 35.5625 -5.890625 C 34.757812 -4.847656 33.773438 -3.722656 32.609375 -2.515625 C 31.453125 -1.316406 30.3125 -0.359375 29.1875 0.359375 L 25.46875 2.890625 C 23.945312 3.921875 22.503906 4.796875 21.140625 5.515625 C 19.773438 6.242188 18.175781 6.609375 16.34375 6.609375 C 14.738281 6.609375 12.953125 6.425781 10.984375 6.0625 C 9.023438 5.707031 7.363281 5.085938 6 4.203125 L 5.890625 4.078125 C 4.847656 3.679688 3.703125 2.84375 2.453125 1.5625 C 1.210938 0.28125 0.394531 -1.679688 0 -4.328125 L 0.125 -4.328125 C -0.195312 -4.804688 -0.457031 -5.304688 -0.65625 -5.828125 C -0.863281 -6.347656 -0.96875 -6.847656 -0.96875 -7.328125 C -0.96875 -7.328125 -0.96875 -7.707031 -0.96875 -8.46875 C -0.96875 -9.226562 -0.925781 -10.050781 -0.84375 -10.9375 C -0.84375 -11.8125 -0.820312 -12.609375 -0.78125 -13.328125 C -0.738281 -14.054688 -0.757812 -14.457031 -0.84375 -14.53125 C -0.84375 -15.8125 -0.757812 -17.09375 -0.59375 -18.375 C -0.4375 -19.65625 -0.28125 -20.9375 -0.125 -22.21875 C -0.125 -22.457031 -0.0820312 -22.617188 0 -22.703125 C 0 -22.859375 0.0195312 -23.015625 0.0625 -23.171875 C 0.101562 -23.335938 0.125 -23.460938 0.125 -23.546875 C 0.4375 -24.910156 0.851562 -26.210938 1.375 -27.453125 C 1.894531 -28.691406 2.4375 -29.910156 3 -31.109375 L 3.84375 -33.390625 L 4.328125 -34.109375 C 4.960938 -35.078125 5.679688 -36.203125 6.484375 -37.484375 C 7.285156 -38.765625 7.96875 -39.601562 8.53125 -40 L 10.09375 -41.6875 C 10.726562 -42.488281 11.40625 -43.269531 12.125 -44.03125 C 12.851562 -44.789062 13.578125 -45.453125 14.296875 -46.015625 C 14.691406 -46.410156 15.007812 -46.648438 15.25 -46.734375 L 15.25 -46.609375 L 15.859375 -47.09375 C 16.421875 -47.570312 16.960938 -47.890625 17.484375 -48.046875 C 18.003906 -48.210938 18.460938 -48.296875 18.859375 -48.296875 C 19.015625 -48.296875 19.191406 -48.273438 19.390625 -48.234375 C 19.597656 -48.191406 19.78125 -48.171875 19.9375 -48.171875 L 20.78125 -48.171875 C 21.101562 -48.171875 21.582031 -48.367188 22.21875 -48.765625 C 22.539062 -48.929688 22.863281 -49.070312 23.1875 -49.1875 C 23.507812 -49.3125 23.789062 -49.375 24.03125 -49.375 C 24.269531 -49.375 24.425781 -49.332031 24.5 -49.25 C 24.820312 -49.40625 25.125 -49.484375 25.40625 -49.484375 C 25.6875 -49.484375 25.945312 -49.484375 26.1875 -49.484375 C 26.507812 -49.484375 27.191406 -49.421875 28.234375 -49.296875 C 29.273438 -49.179688 30.414062 -48.863281 31.65625 -48.34375 C 32.894531 -47.820312 34.035156 -47 35.078125 -45.875 C 36.117188 -44.757812 36.757812 -43.160156 37 -41.078125 C 37 -39.234375 36.597656 -37.472656 35.796875 -35.796875 C 35.710938 -35.472656 35.429688 -34.832031 34.953125 -33.875 C 34.472656 -32.914062 33.890625 -31.914062 33.203125 -30.875 C 32.523438 -29.832031 31.910156 -28.988281 31.359375 -28.34375 Z M 25.109375 -34.71875 L 24.5 -34.234375 C 24.425781 -34.148438 24.328125 -33.988281 24.203125 -33.75 C 24.085938 -33.507812 23.988281 -33.269531 23.90625 -33.03125 C 23.90625 -32.957031 23.863281 -32.878906 23.78125 -32.796875 C 23.707031 -32.710938 23.671875 -32.628906 23.671875 -32.546875 C 22.066406 -30.066406 20.679688 -27.664062 19.515625 -25.34375 C 18.359375 -23.019531 17.578125 -21.257812 17.171875 -20.0625 C 17.660156 -20.300781 18.144531 -20.617188 18.625 -21.015625 C 19.101562 -21.421875 19.539062 -21.785156 19.9375 -22.109375 L 22.578125 -24.265625 C 24.984375 -26.585938 27.023438 -29.050781 28.703125 -31.65625 C 30.390625 -34.257812 31.273438 -36.640625 31.359375 -38.796875 C 31.191406 -38.960938 31.007812 -39.144531 30.8125 -39.34375 C 30.613281 -39.539062 30.394531 -39.679688 30.15625 -39.765625 C 29.675781 -39.679688 28.929688 -39.117188 27.921875 -38.078125 C 26.921875 -37.035156 25.984375 -35.914062 25.109375 -34.71875 Z M 25.109375 -34.71875 "/></g></g></g><g fill="#ffffff" fill-opacity="1"><g transform="translate(669.600558, 644.096462)"><g><path d="M 11.53125 -34 L 11.53125 -34.109375 L 9.734375 -30.390625 C 9.566406 -29.910156 9.160156 -29.171875 8.515625 -28.171875 C 7.878906 -27.171875 7.203125 -26.128906 6.484375 -25.046875 C 5.765625 -23.960938 5.082031 -23.019531 4.4375 -22.21875 C 3.800781 -21.414062 3.40625 -21.015625 3.25 -21.015625 C 2.925781 -21.015625 2.679688 -21.234375 2.515625 -21.671875 C 2.359375 -22.117188 2.203125 -22.90625 2.046875 -24.03125 C 2.046875 -24.101562 2.363281 -24.71875 3 -25.875 C 3.644531 -27.039062 4.347656 -28.285156 5.109375 -29.609375 C 5.867188 -30.929688 6.410156 -31.875 6.734375 -32.4375 C 7.609375 -34.039062 8.484375 -35.800781 9.359375 -37.71875 C 10.242188 -39.644531 10.648438 -41.003906 10.578125 -41.796875 C 10.578125 -42.035156 10.296875 -42.554688 9.734375 -43.359375 C 9.171875 -44.160156 8.566406 -44.960938 7.921875 -45.765625 C 7.285156 -46.648438 6.6875 -47.507812 6.125 -48.34375 C 5.5625 -49.1875 5.28125 -49.769531 5.28125 -50.09375 L 5.171875 -50.6875 C 4.847656 -51.164062 4.6875 -51.648438 4.6875 -52.140625 C 4.601562 -54.210938 4.820312 -56.429688 5.34375 -58.796875 C 5.863281 -61.160156 6.664062 -63.40625 7.75 -65.53125 C 8.832031 -67.65625 10.171875 -69.394531 11.765625 -70.75 C 13.367188 -72.113281 15.171875 -72.796875 17.171875 -72.796875 C 18.859375 -72.796875 20.34375 -72.296875 21.625 -71.296875 C 22.90625 -70.296875 23.625 -68.875 23.78125 -67.03125 C 23.945312 -65.101562 23.6875 -62.9375 23 -60.53125 C 22.320312 -58.132812 21.484375 -55.773438 20.484375 -53.453125 C 19.484375 -51.128906 18.539062 -49.085938 17.65625 -47.328125 C 17.257812 -46.453125 16.957031 -45.832031 16.75 -45.46875 C 16.550781 -45.101562 16.375 -44.722656 16.21875 -44.328125 C 16.21875 -44.328125 16.238281 -44.347656 16.28125 -44.390625 C 16.320312 -44.429688 16.378906 -44.453125 16.453125 -44.453125 C 16.617188 -44.453125 16.800781 -44.3125 17 -44.03125 C 17.195312 -43.75 17.5 -43.609375 17.90625 -43.609375 C 17.90625 -43.609375 17.921875 -43.609375 17.953125 -43.609375 C 17.992188 -43.609375 18.054688 -43.609375 18.140625 -43.609375 L 18.625 -42.640625 L 18.625 -42.765625 C 18.695312 -42.679688 18.734375 -42.617188 18.734375 -42.578125 C 18.734375 -42.546875 18.734375 -42.53125 18.734375 -42.53125 C 19.210938 -42.53125 19.734375 -42.648438 20.296875 -42.890625 L 20.1875 -42.890625 L 24.984375 -45.765625 C 26.828125 -46.890625 28.367188 -47.710938 29.609375 -48.234375 C 30.847656 -48.753906 31.628906 -49.050781 31.953125 -49.125 C 32.515625 -49.125 33.515625 -48.644531 34.953125 -47.6875 C 36.398438 -46.726562 37.765625 -45.546875 39.046875 -44.140625 C 40.328125 -42.742188 41.003906 -41.320312 41.078125 -39.875 C 41.160156 -39.15625 40.941406 -38.234375 40.421875 -37.109375 C 39.898438 -35.992188 39.195312 -34.632812 38.3125 -33.03125 C 37.519531 -31.507812 36.640625 -29.765625 35.671875 -27.796875 C 34.710938 -25.835938 33.796875 -23.578125 32.921875 -21.015625 L 30.390625 -15.25 C 29.671875 -12.613281 29.3125 -10.015625 29.3125 -7.453125 L 29.3125 -5.640625 L 29.546875 -3.25 C 29.546875 -2.84375 29.507812 -2.597656 29.4375 -2.515625 L 29.546875 -1.4375 C 29.785156 0.320312 30.125 2.160156 30.5625 4.078125 C 31.007812 6.003906 31.753906 6.96875 32.796875 6.96875 C 33.117188 6.96875 33.597656 6.765625 34.234375 6.359375 C 34.390625 6.523438 34.671875 6.609375 35.078125 6.609375 C 36.203125 6.609375 37.601562 5.90625 39.28125 4.5 C 40.957031 3.101562 42.675781 1.242188 44.4375 -1.078125 C 46.207031 -3.398438 47.890625 -5.941406 49.484375 -8.703125 C 51.085938 -11.472656 52.410156 -14.21875 53.453125 -16.9375 C 54.253906 -18.863281 54.894531 -20.625 55.375 -22.21875 C 55.457031 -22.539062 55.675781 -23.242188 56.03125 -24.328125 C 56.394531 -25.410156 56.816406 -26.46875 57.296875 -27.5 C 57.773438 -28.539062 58.175781 -29.0625 58.5 -29.0625 C 58.582031 -29.0625 58.625 -28.742188 58.625 -28.109375 C 58.625 -27.785156 58.660156 -27.503906 58.734375 -27.265625 L 58.984375 -27.03125 L 58.859375 -27.03125 C 59.265625 -26.789062 59.425781 -26.128906 59.34375 -25.046875 C 59.257812 -23.960938 58.457031 -21.582031 56.9375 -17.90625 L 56.21875 -15.859375 L 55.25 -13.9375 C 54.613281 -12.65625 53.851562 -11.148438 52.96875 -9.421875 C 52.09375 -7.703125 51.453125 -6.5625 51.046875 -6 L 49.859375 -4.203125 C 49.054688 -3.003906 48.351562 -1.78125 47.75 -0.53125 C 47.144531 0.707031 46.523438 1.96875 45.890625 3.25 C 43.160156 6.925781 40.570312 9.285156 38.125 10.328125 C 35.6875 11.367188 33.347656 11.890625 31.109375 11.890625 C 26.148438 11.492188 22.285156 9.492188 19.515625 5.890625 C 16.753906 2.285156 15.132812 -2.195312 14.65625 -7.5625 C 14.570312 -8.289062 14.609375 -9.132812 14.765625 -10.09375 C 14.929688 -11.050781 15.132812 -12.050781 15.375 -13.09375 C 15.613281 -14.050781 15.832031 -15.050781 16.03125 -16.09375 C 16.238281 -17.132812 16.378906 -18.132812 16.453125 -19.09375 C 16.453125 -21.101562 16.832031 -23.109375 17.59375 -25.109375 C 18.351562 -27.109375 19.132812 -28.867188 19.9375 -30.390625 C 20.582031 -31.671875 21.164062 -32.910156 21.6875 -34.109375 C 22.207031 -35.316406 22.382812 -36.441406 22.21875 -37.484375 C 22.21875 -37.398438 22.195312 -37.378906 22.15625 -37.421875 C 22.125 -37.460938 22.109375 -37.484375 22.109375 -37.484375 L 22.21875 -38.4375 C 22.300781 -38.601562 22.34375 -38.84375 22.34375 -39.15625 L 22.34375 -39.28125 C 22.1875 -39.28125 22.066406 -39.238281 21.984375 -39.15625 C 21.742188 -39.082031 21.503906 -38.960938 21.265625 -38.796875 C 21.023438 -38.640625 20.820312 -38.5625 20.65625 -38.5625 C 20.5 -38.5625 20.378906 -38.601562 20.296875 -38.6875 C 19.984375 -38.519531 19.785156 -38.4375 19.703125 -38.4375 C 19.054688 -38.4375 18.253906 -38.640625 17.296875 -39.046875 C 16.972656 -39.203125 16.570312 -39.378906 16.09375 -39.578125 C 15.613281 -39.773438 15.175781 -39.875 14.78125 -39.875 C 14.613281 -39.875 14.453125 -39.796875 14.296875 -39.640625 C 13.972656 -39.242188 13.648438 -38.765625 13.328125 -38.203125 C 13.015625 -37.640625 12.695312 -36.957031 12.375 -36.15625 C 12.207031 -35.59375 12.125 -35.210938 12.125 -35.015625 C 12.125 -34.816406 11.925781 -34.476562 11.53125 -34 Z M 12.25 -52.25 C 12.414062 -51.375 12.632812 -50.515625 12.90625 -49.671875 C 13.1875 -48.828125 13.445312 -48.125 13.6875 -47.5625 L 13.8125 -47.09375 C 15.175781 -49.96875 16.359375 -52.828125 17.359375 -55.671875 C 18.359375 -58.515625 18.78125 -60.617188 18.625 -61.984375 C 18.625 -62.546875 18.421875 -62.90625 18.015625 -63.0625 C 17.296875 -62.738281 16.492188 -61.9375 15.609375 -60.65625 C 14.734375 -59.375 13.953125 -57.953125 13.265625 -56.390625 C 12.585938 -54.835938 12.25 -53.457031 12.25 -52.25 Z M 12.25 -52.25 "/></g></g></g></svg>